<?xml version="1.0" standalone="no"?>
<!DOCTYPE svg PUBLIC "-//W3C//DTD SVG 20010904//EN"
 "http://www.w3.org/TR/2001/REC-SVG-20010904/DTD/svg10.dtd">
<svg version="1.0" xmlns="http://www.w3.org/2000/svg"
 width="639.000000pt" height="639.000000pt" viewBox="0 0 639.000000 639.000000"
 preserveAspectRatio="xMidYMid meet">
<metadata>
Created by potrace 1.11, written by Peter Selinger 2001-2013
</metadata>
<g transform="translate(0.000000,639.000000) scale(0.100000,-0.100000)"
fill="#000000" stroke="none">
<path d="M910 5692 c-7 -3 -10 -844 -10 -2498 l0 -2494 23 -1 c12 0 1043 -1
2292 -1 l2270 -1 3 2499 2 2499 -2285 0 c-1257 0 -2289 -1 -2295 -3z m4521
-174 c1 -7 2 -1063 3 -2346 1 -2325 1 -2333 -19 -2337 -11 -2 -1019 -3 -2240
-2 l-2220 2 0 2348 0 2347 2238 0 c1782 0 2237 -3 2238 -12z"/>
<path d="M1030 5411 c0 -4 10 -7 22 -8 11 -1 25 -8 30 -15 9 -13 9 -338 0
-383 -3 -19 -11 -25 -30 -25 -14 0 -22 -3 -18 -7 11 -11 315 -12 322 -1 4 6 8
27 11 47 l4 36 -23 -28 c-19 -23 -32 -29 -73 -31 -28 -1 -58 -1 -67 2 -27 7
-36 58 -29 175 1 14 10 17 52 17 58 0 89 -13 89 -38 0 -35 17 8 18 48 2 37 0
39 -21 31 -39 -14 -137 -14 -138 1 -5 74 -2 141 6 147 6 4 28 7 50 5 22 -1 50
-3 62 -3 15 -1 25 -9 29 -26 9 -35 20 -23 22 24 l2 39 -160 0 c-88 -1 -160 -4
-160 -7z"/>
<path d="M2347 5353 c-2 -5 -5 -71 -6 -148 -4 -220 -7 -240 -36 -228 -8 3 -15
1 -15 -4 0 -11 146 -11 156 0 4 4 -4 7 -18 7 -32 0 -35 7 -37 100 -2 41 -4 94
-6 118 l-3 43 28 -23 c15 -13 89 -75 165 -138 137 -115 164 -133 166 -108 0 7
3 83 5 168 5 184 7 197 37 203 12 2 -16 4 -61 5 -76 0 -102 -5 -56 -12 25 -4
30 -28 33 -155 l2 -113 -38 30 c-21 17 -52 43 -69 59 -17 15 -52 46 -78 68
-27 22 -67 57 -90 78 -48 44 -73 60 -79 50z"/>
<path d="M4465 5345 c-56 -16 -84 -33 -116 -68 -37 -40 -48 -74 -45 -134 5
-95 65 -150 196 -180 24 -5 143 -4 175 2 67 13 65 10 65 90 0 69 2 75 25 88
23 12 17 13 -64 12 -49 0 -92 -2 -95 -5 -3 -3 4 -7 16 -7 29 -3 31 -7 35 -78
3 -60 2 -66 -19 -74 -30 -11 -89 -4 -139 17 -92 37 -137 177 -84 259 53 80
239 83 292 4 13 -19 23 -30 24 -25 1 5 2 28 4 51 2 40 1 41 -34 49 -60 12
-195 12 -236 -1z"/>
<path d="M1468 5339 l32 -10 0 -160 c0 -152 -9 -207 -30 -194 -5 3 -11 2 -14
-3 -8 -13 294 -8 342 6 47 14 106 61 127 102 22 43 24 105 4 147 -48 102 -103
121 -343 121 -112 1 -143 -2 -118 -9z m242 -24 c50 -10 107 -49 126 -87 22
-42 22 -124 0 -165 -15 -31 -57 -61 -95 -68 -68 -13 -150 -3 -152 18 -1 7 -2
77 -3 157 -2 138 -1 145 18 151 24 6 56 5 106 -6z"/>
<path d="M2043 5338 l27 -10 0 -169 0 -169 -25 -10 c-14 -5 -25 -11 -25 -12 0
-2 43 -3 95 -4 52 0 95 2 95 5 0 4 -10 7 -22 8 -11 1 -24 7 -28 13 -4 6 -6 84
-6 173 l1 161 25 13 c22 11 13 13 -70 12 -76 0 -89 -3 -67 -11z"/>
<path d="M2895 5343 c40 -10 42 -18 40 -185 -2 -190 -1 -178 -19 -178 -8 0
-17 -4 -20 -8 -7 -12 235 -7 264 6 60 27 89 77 71 124 -11 28 -69 78 -92 78
-8 0 -3 9 13 23 58 51 53 112 -12 134 -20 7 -85 12 -150 11 -63 0 -106 -3 -95
-5z m205 -39 c17 -18 24 -41 21 -71 0 -7 -10 -21 -21 -31 -25 -23 -79 -18 -81
7 -2 16 -1 100 0 113 2 14 63 0 81 -18z m19 -172 c25 -21 32 -36 33 -65 1 -43
-14 -63 -58 -76 -40 -11 -74 3 -75 31 -6 113 -4 133 10 139 24 9 57 -1 90 -29z"/>
<path d="M3314 5341 c38 -8 43 -26 41 -146 -2 -109 7 -148 39 -183 37 -42 68
-51 157 -49 70 2 89 6 117 25 54 39 65 73 69 207 2 66 5 125 8 132 2 6 14 13
27 16 13 2 -17 4 -67 5 -70 0 -83 -2 -58 -9 l31 -9 0 -128 c0 -140 -11 -181
-54 -201 -56 -25 -140 -7 -166 37 -13 22 -16 54 -15 162 2 134 2 134 27 141
14 4 -22 7 -80 7 -58 0 -92 -3 -76 -7z"/>
<path d="M3850 5340 c8 -5 18 -6 22 -4 17 11 24 -48 23 -195 -1 -110 -5 -156
-13 -159 -7 -2 -12 -7 -12 -11 0 -9 146 -8 156 2 4 4 -5 7 -19 7 -15 0 -27 6
-28 13 -5 70 -6 127 0 128 56 7 62 4 106 -51 52 -65 75 -85 106 -96 32 -11
119 -12 119 -2 0 4 -9 8 -20 8 -12 0 -56 34 -106 82 l-85 81 35 29 c19 15 39
41 44 57 15 43 -12 92 -58 107 -43 14 -292 18 -270 4z m230 -46 c30 -28 35
-64 15 -104 -16 -32 -45 -44 -91 -38 l-29 3 -1 82 c-1 76 0 82 20 85 33 6 59
-3 86 -28z"/>
<path d="M4878 5339 l32 -10 0 -170 c0 -162 -1 -171 -20 -176 -43 -11 -16 -19
70 -18 50 0 90 3 90 7 0 5 -11 8 -25 8 -14 0 -26 6 -26 13 -1 6 -3 45 -4 85
l-2 72 31 1 c37 1 164 1 189 0 15 -1 17 -12 17 -82 0 -72 -2 -81 -20 -86 -42
-11 -17 -18 70 -19 50 -1 90 2 90 5 0 4 -10 7 -21 8 -12 1 -24 5 -28 8 -3 4
-6 82 -6 173 l0 166 25 13 c22 11 12 13 -75 11 -55 0 -89 -3 -75 -5 35 -7 40
-19 40 -93 l0 -66 -118 0 -118 -1 2 61 c1 34 2 67 3 74 0 7 11 17 24 21 15 6
-11 9 -78 9 -78 0 -93 -2 -67 -9z"/>
<path d="M1030 4818 c0 -5 3 -7 8 -6 4 1 17 -1 29 -6 22 -7 23 -9 22 -206 -1
-206 -3 -213 -44 -222 -11 -2 57 -5 152 -6 95 -1 174 2 177 7 11 17 15 81 6
81 -6 0 -10 -6 -10 -14 0 -23 -26 -37 -79 -40 -76 -5 -100 2 -108 32 -11 43
-8 351 4 363 5 5 19 11 31 12 12 0 19 4 16 7 -9 8 -204 6 -204 -2z"/>
<path d="M4708 4813 c-2 -10 -3 -831 -3 -1825 0 -1797 1 -1807 21 -1834 34
-46 69 -52 335 -52 264 -1 284 2 307 50 10 22 13 390 13 1844 0 1166 -4 1821
-10 1827 -6 6 -21 5 -40 -3 l-31 -12 0 -1799 0 -1799 -22 -14 c-18 -10 -70
-13 -240 -12 -185 1 -220 3 -233 17 -15 14 -16 181 -16 1807 l0 1792 -22 15
c-29 20 -54 19 -59 -2z"/>
<path d="M1696 4738 c-9 -48 -7 -52 14 -33 14 13 38 18 85 19 l65 2 -2 -165
c-3 -162 -4 -166 -26 -177 -19 -9 -5 -12 78 -12 97 0 120 4 70 11 -13 2 -27
13 -31 23 -4 11 -6 87 -5 169 l1 150 40 1 c56 1 105 -14 105 -31 0 -8 4 -15 8
-15 5 0 8 17 7 38 l-1 37 -187 1 c-102 1 -192 4 -200 7 -10 4 -17 -4 -21 -25z"/>
<path d="M3179 4748 c-7 -13 -51 -98 -96 -190 -46 -93 -87 -168 -91 -168 -15
0 -73 48 -126 104 l-54 56 39 39 c30 30 39 46 39 72 -1 75 -39 92 -210 94
-103 2 -128 -1 -107 -8 15 -6 27 -18 28 -26 3 -70 4 -282 1 -304 -3 -17 -13
-32 -26 -37 -13 -5 17 -8 79 -8 77 1 92 3 68 10 -18 5 -33 14 -34 21 0 7 -3
38 -5 70 l-3 57 33 0 c27 0 41 -10 90 -65 76 -86 91 -93 206 -93 66 -1 88 2
73 8 -28 12 -28 18 -1 75 l22 46 76 -3 75 -3 22 -45 c12 -25 22 -53 22 -62 1
-16 12 -18 79 -18 51 0 72 3 62 9 -8 6 -17 8 -21 6 -13 -9 -39 34 -123 202
-48 95 -91 175 -96 178 -5 3 -15 -5 -21 -17z m-383 -52 c40 -45 13 -131 -41
-136 -73 -7 -74 -7 -73 78 1 42 3 81 6 86 9 17 87 -2 108 -28z m392 -41 c-3
-3 8 -31 23 -63 l29 -57 -56 -3 c-31 -2 -58 -1 -60 1 -7 6 50 127 60 127 5 0
7 -2 4 -5z"/>
<path d="M1456 4748 c3 -4 12 -8 20 -8 16 0 16 1 18 -185 1 -77 -1 -148 -6
-157 -4 -9 -18 -18 -30 -20 -13 -3 21 -5 75 -5 53 -1 97 2 97 7 0 5 -6 7 -13
4 -31 -12 -38 23 -39 186 -1 125 2 164 13 170 7 5 16 7 20 4 4 -2 10 -1 13 4
3 5 -35 9 -84 9 -49 0 -87 -4 -84 -9z"/>
<path d="M2167 4747 c3 -4 7 -6 10 -3 3 3 13 1 22 -4 15 -7 17 -31 18 -174 l2
-166 -26 -14 c-23 -12 -10 -13 125 -15 117 -1 152 1 153 11 0 7 3 26 5 43 l5
29 -25 -27 c-20 -22 -34 -27 -71 -27 -76 0 -84 9 -83 90 1 77 -1 74 73 71 23
-1 45 -9 52 -18 15 -20 18 -17 26 23 l6 32 -79 -4 -80 -4 0 69 0 68 58 -1 c64
-2 82 -9 82 -33 0 -25 11 -8 19 29 l8 34 -153 0 c-84 0 -150 -4 -147 -9z"/>
<path d="M3466 4748 c3 -5 8 -7 11 -4 3 3 14 1 23 -4 16 -9 18 -26 17 -177 -2
-166 -2 -168 -26 -179 -20 -11 -10 -12 67 -12 51 1 92 5 92 9 0 5 -6 6 -13 3
-21 -8 -35 17 -37 66 -3 78 -2 80 28 80 34 0 45 -9 100 -76 51 -62 93 -84 163
-84 48 0 63 8 25 14 -20 3 -101 69 -150 124 l-39 43 36 35 c61 60 57 128 -11
156 -33 14 -294 19 -286 6z m211 -28 c90 -32 54 -179 -40 -164 -43 6 -46 18
-38 162 1 15 37 16 78 2z"/>
<path d="M3860 4749 c0 -5 3 -8 8 -7 15 5 50 -29 104 -102 69 -92 77 -112 73
-182 -3 -59 -11 -82 -26 -73 -5 4 -9 1 -9 -4 0 -7 28 -11 75 -10 41 1 75 5 75
10 0 5 -6 8 -12 7 -22 -5 -23 148 -2 181 48 73 119 161 136 167 10 3 18 9 18
14 0 11 -109 9 -116 -2 -3 -4 0 -8 5 -8 6 0 11 -5 11 -12 0 -14 -90 -148 -99
-148 -3 0 -29 36 -58 79 -34 52 -48 82 -42 88 7 7 -16 10 -65 10 -42 0 -76 -4
-76 -8z"/>
<path d="M4819 4690 c-10 -38 -5 -50 22 -50 l28 0 0 -1632 c0 -898 1 -1663 1
-1700 0 -48 4 -68 13 -68 10 0 12 332 12 1698 l0 1697 28 3 27 3 0 -1700 c0
-1376 2 -1701 13 -1701 10 0 13 324 13 1698 l0 1697 27 3 27 3 0 -1700 c0
-1414 2 -1701 13 -1701 11 0 14 284 15 1678 0 922 1 1687 1 1700 1 17 7 22 26
22 l25 0 0 -1700 c0 -1504 2 -1700 15 -1700 13 0 15 196 15 1700 l0 1700 25 0
c20 0 25 -5 26 -27 0 -16 0 -781 0 -1700 1 -1430 3 -1673 15 -1673 12 0 14
247 14 1700 l0 1700 24 0 c26 0 37 16 27 40 -5 13 -40 15 -229 15 -122 0 -223
-2 -223 -5z"/>
<path d="M4170 4380 c0 -5 5 -10 11 -10 5 0 7 5 4 10 -3 6 -8 10 -11 10 -2 0
-4 -4 -4 -10z"/>
<path d="M1188 4255 c-2 -2 -15 -6 -30 -9 -60 -10 -98 -48 -102 -101 -4 -48
24 -88 104 -148 69 -51 101 -95 93 -127 -21 -79 -173 -71 -190 10 -9 48 -23
35 -23 -23 0 -52 1 -54 33 -64 49 -15 150 -8 183 13 49 31 67 55 71 98 6 52
-22 96 -91 146 -27 19 -65 49 -85 67 -32 28 -35 34 -26 60 23 64 120 67 162 4
13 -19 23 -28 24 -20 0 8 2 29 3 47 3 35 1 36 -80 46 -23 3 -43 3 -46 1z"/>
<path d="M3984 4199 c-4 -7 -7 -689 -7 -1516 0 -1473 0 -1505 19 -1530 34 -46
73 -52 335 -52 133 0 252 4 265 9 13 5 31 21 40 35 16 25 17 128 18 1532 1
999 -2 1511 -9 1520 -8 11 -17 11 -43 2 l-32 -11 0 -1488 c0 -1459 0 -1489
-19 -1502 -28 -20 -451 -19 -475 1 -15 12 -16 132 -16 1496 0 1174 -3 1485
-12 1493 -23 17 -56 23 -64 11z"/>
<path d="M1574 4158 c-10 -18 -53 -103 -96 -187 -43 -85 -80 -157 -82 -159 -2
-1 -13 -4 -25 -5 -11 -1 -21 -4 -21 -8 0 -3 35 -6 78 -6 42 0 68 3 57 6 -27 8
-28 22 -4 75 l20 46 78 0 77 0 23 -55 c12 -30 20 -58 17 -63 -3 -5 32 -9 77
-10 78 -1 80 0 50 13 -28 12 -44 37 -122 194 -50 98 -95 182 -100 186 -6 3
-18 -9 -27 -27z m34 -138 c16 -33 27 -62 24 -65 -3 -3 -30 -5 -60 -5 -39 0
-53 3 -49 13 14 35 52 117 54 117 2 0 16 -27 31 -60z"/>
<path d="M2410 4179 c-113 -21 -185 -97 -188 -198 -2 -72 71 -160 150 -182
213 -57 391 71 346 249 -24 98 -164 157 -308 131z m144 -49 c52 -32 79 -84 79
-155 1 -79 -21 -121 -77 -145 -67 -30 -139 -15 -194 41 -39 40 -51 76 -46 147
4 65 39 117 87 131 48 13 113 5 151 -19z"/>
<path d="M2835 4178 c-2 -7 -6 -91 -8 -186 -2 -95 -8 -176 -13 -181 -5 -5 -18
-11 -29 -13 -11 -3 21 -5 70 -4 72 0 84 2 62 10 -15 6 -30 20 -33 32 -9 34
-12 224 -4 224 4 0 23 -15 42 -32 19 -18 59 -53 88 -78 30 -25 66 -55 80 -67
60 -52 116 -93 128 -93 13 0 13 -3 16 216 3 136 8 170 26 159 5 -3 11 -1 15 5
4 6 -19 10 -64 9 -39 -1 -68 -5 -65 -10 3 -5 12 -9 20 -9 8 0 14 -1 15 -2 0
-2 3 -62 5 -135 l5 -132 -33 28 c-153 132 -228 198 -260 226 -49 44 -57 49
-63 33z"/>
<path d="M1882 4168 c15 -5 29 -17 32 -26 4 -15 2 -293 -2 -330 -1 -7 -6 -10
-12 -7 -5 3 -10 2 -10 -3 0 -5 65 -9 147 -8 l147 1 7 32 c8 42 1 48 -23 18
-17 -22 -25 -24 -85 -21 -39 2 -68 8 -73 16 -4 7 -8 80 -8 162 l1 150 30 13
c26 11 18 12 -74 12 -76 0 -97 -2 -77 -9z"/>
<path d="M4091 4070 c-17 -13 -5 -45 19 -50 l25 -5 3 -1388 c2 -1104 5 -1388
15 -1384 9 3 12 289 14 1368 0 750 2 1374 2 1387 1 17 7 22 26 22 25 0 25 -1
25 -82 0 -46 0 -671 0 -1391 1 -1099 3 -1307 14 -1307 12 0 14 215 14 1353 1
743 1 1369 1 1390 1 33 4 37 26 37 24 0 25 -3 25 -62 0 -35 1 -660 1 -1390 0
-1156 2 -1328 14 -1328 13 0 15 180 15 1390 l0 1390 25 0 c20 0 25 -5 26 -27
0 -16 0 -641 1 -1390 0 -1155 2 -1363 14 -1363 12 0 14 212 14 1390 l0 1390
25 0 c14 0 25 -6 26 -12 0 -7 2 -631 2 -1387 2 -1087 5 -1375 14 -1378 10 -4
13 280 15 1384 l3 1388 27 3 c21 3 27 8 25 22 -2 11 -6 23 -10 27 -8 8 -435
11 -446 3z"/>
<path d="M1124 3688 c-3 -4 -5 -589 -5 -1299 l0 -1291 -24 -24 c-13 -13 -31
-24 -40 -24 -20 0 -25 -68 -5 -80 4 -3 149 -5 321 -4 l313 0 2 38 c2 33 -1 39
-32 53 -18 9 -37 26 -41 37 -4 12 -7 601 -8 1311 0 1222 -1 1290 -18 1289 -9
-1 -21 -2 -27 -3 -7 -1 -10 -440 -10 -1295 0 -1199 -1 -1294 -17 -1300 -9 -4
-21 -2 -26 3 -6 6 -10 480 -10 1304 l0 1293 -21 -2 c-12 -1 -24 -3 -27 -3 -3
-1 -5 -582 -5 -1291 0 -870 -3 -1293 -10 -1300 -6 -6 -18 -8 -27 -4 -16 6 -17
104 -19 1302 -3 1224 -4 1295 -20 1298 -10 1 -21 -3 -25 -9 -4 -7 -8 -589 -8
-1294 0 -1328 0 -1326 -39 -1294 -12 10 -14 186 -14 1297 0 707 -3 1288 -6
1292 -10 10 -146 10 -152 0z"/>
<path d="M3440 3685 c-1 -5 -1 -588 -1 -1295 0 -840 -4 -1291 -11 -1303 -5
-10 -24 -25 -42 -32 -31 -13 -33 -16 -27 -51 l6 -38 305 -1 c168 0 312 1 321
3 11 3 16 15 16 41 0 34 -4 39 -33 50 -18 7 -36 22 -40 34 -4 12 -8 602 -8
1312 l-1 1289 -25 0 -25 0 -5 -1299 c-5 -1217 -6 -1300 -22 -1303 -11 -2 -19
5 -23 21 -4 13 -7 599 -8 1303 l-2 1279 -25 0 -25 0 0 -1292 c0 -894 -4 -1296
-11 -1303 -6 -6 -18 -8 -27 -4 -16 6 -17 104 -19 1303 -3 1144 -5 1296 -18
1297 -8 0 -20 -3 -25 -7 -7 -5 -10 -442 -9 -1286 0 -703 -3 -1286 -8 -1296
-12 -24 -35 -21 -41 6 -3 12 -5 595 -5 1295 0 700 -3 1276 -7 1280 -11 11
-155 8 -155 -3z"/>
<path d="M1010 3313 c-1 -1531 -1 -2236 2 -2239 2 -1 17 4 35 12 21 11 33 25
37 47 5 23 10 2025 6 2475 0 31 -2 32 -40 32 l-40 0 0 -327z"/>
<path d="M1631 3275 l0 -365 110 0 109 0 1 28 c1 31 3 45 20 116 6 28 15 56
19 61 4 6 12 25 18 43 6 17 27 57 47 87 l37 55 42 -31 43 -30 65 63 c35 35 90
76 122 92 55 28 57 30 50 60 -14 62 -12 68 36 83 25 8 90 16 145 18 93 4 119
1 216 -25 l37 -10 -17 -47 -17 -47 60 -30 c33 -17 89 -59 125 -93 36 -35 67
-63 69 -63 1 0 21 14 44 30 l42 31 18 -23 c22 -30 83 -153 97 -198 13 -43 23
-95 25 -135 l1 -30 110 -2 110 -2 -1 352 c-1 194 -2 358 -3 365 -1 9 -186 12
-890 12 l-890 0 0 -365z"/>
<path d="M2483 3533 c-4 -1 -40 -7 -79 -13 l-71 -11 24 -77 c14 -42 26 -83 29
-91 3 -10 16 -12 52 -6 65 10 159 7 181 -5 25 -13 33 -2 61 85 13 39 25 75 27
81 4 11 -20 18 -97 30 -32 5 -116 10 -127 7z"/>
<path d="M2260 3351 c-88 -53 -158 -126 -144 -148 23 -37 41 -39 72 -8 51 52
84 77 132 99 l48 21 -12 34 c-6 19 -15 36 -21 38 -5 1 -39 -15 -75 -36z"/>
<path d="M2692 3365 c-18 -40 -15 -52 21 -66 40 -16 136 -86 143 -104 3 -7 13
-16 21 -19 17 -7 63 18 63 35 0 19 -112 117 -170 148 -32 17 -60 31 -62 31 -3
0 -10 -11 -16 -25z"/>
<path d="M2408 3300 c-140 -44 -238 -132 -291 -263 -21 -51 -22 -62 -25 -765
l-3 -712 433 2 433 3 0 685 c1 712 0 727 -41 817 -18 40 -77 118 -112 149 -34
29 -120 73 -169 86 -63 17 -169 16 -225 -2z m87 -123 l1 -77 -39 -11 c-54 -14
-114 -72 -134 -129 l-17 -47 -79 0 -79 0 7 46 c18 122 116 234 246 281 88 32
93 28 94 -63z m166 57 c91 -35 162 -104 204 -198 13 -28 25 -67 28 -87 l5 -37
-84 0 c-46 0 -82 3 -80 7 8 13 -33 90 -63 120 -16 16 -50 37 -75 46 l-46 18 0
78 0 79 33 -4 c18 -3 53 -12 78 -22z m-56 -213 c31 -17 75 -74 75 -96 0 -9
-41 -12 -155 -12 -172 0 -175 1 -133 63 49 71 137 90 213 45z m-300 -354 l1
-188 -81 3 -80 3 -1 180 c0 99 1 183 3 186 2 4 38 6 80 5 l78 -1 0 -188z m375
182 c3 -4 5 -87 4 -186 l0 -178 -162 -3 -163 -2 1 188 1 189 157 0 c86 0 159
-4 162 -8z m220 -180 l0 -189 -80 0 c-46 0 -80 4 -81 10 0 6 0 39 0 75 0 36 0
116 0 179 l1 113 80 0 80 1 0 -189z m-599 -248 c3 0 5 -84 5 -186 0 -145 -3
-185 -13 -186 -7 0 -38 0 -68 0 -30 0 -61 0 -68 0 -9 1 -12 44 -12 184 -1 100
3 184 7 187 6 5 130 5 149 1z m375 -4 c5 -4 8 -89 9 -187 l0 -180 -40 0 c-113
-2 -214 -2 -248 -1 l-38 1 2 183 c1 100 5 184 10 187 13 9 297 6 305 -3z m222
-179 l2 -188 -27 -1 c-28 -1 -82 -1 -115 0 -17 1 -18 17 -18 189 l0 187 78 0
77 0 3 -187z m-597 -247 c10 -2 5 -370 -6 -374 -9 -3 -94 -2 -135 2 -13 1 -15
26 -15 179 0 97 3 182 7 187 5 8 100 11 149 6z m376 -4 c9 -10 11 -337 2 -357
-6 -13 -31 -15 -156 -14 -81 1 -151 2 -156 3 -10 1 -8 353 3 366 9 11 295 13
307 2z m206 4 c16 -1 17 -17 17 -186 0 -169 -2 -185 -17 -186 -10 -1 -46 -2
-80 -3 -59 -1 -63 0 -63 22 -1 29 -1 306 0 331 0 26 20 29 143 22z"/>
<path d="M1952 3193 c-32 -62 -61 -146 -68 -203 -3 -19 -7 -47 -9 -62 -4 -31
-7 -30 90 -30 105 0 101 -1 103 35 3 48 30 132 54 172 l21 36 -34 29 c-19 16
-40 29 -46 30 -7 0 -13 4 -13 8 0 7 -52 42 -63 42 -2 0 -18 -26 -35 -57z"/>
<path d="M2990 3209 c-95 -70 -92 -66 -66 -108 24 -39 42 -92 52 -156 3 -22 7
-41 9 -43 3 -3 92 -5 154 -3 l33 1 -5 48 c-3 26 -11 70 -17 98 -12 55 -79 196
-95 200 -5 2 -35 -15 -65 -37z"/>
<path d="M1633 2874 c-2 -6 -2 -55 -1 -109 l3 -98 126 0 c70 0 131 3 135 6 11
6 10 195 -1 205 -11 12 -257 8 -262 -4z"/>
<path d="M3142 2795 c-1 -142 -13 -130 130 -128 68 1 128 2 133 2 8 1 12 137
6 206 -1 7 -50 11 -135 10 l-134 0 0 -90z"/>
<path d="M1932 2763 l3 -97 55 1 c30 1 60 2 65 2 8 1 13 150 6 182 0 3 -30 6
-66 7 l-66 1 3 -96z"/>
<path d="M2987 2853 c-4 -3 -7 -46 -7 -95 0 -77 2 -88 18 -89 9 0 40 -1 67 -2
l51 -2 0 96 0 97 -61 1 c-34 1 -65 -2 -68 -6z"/>
<path d="M1893 2640 c-16 -4 -18 -17 -18 -95 l0 -90 95 -2 95 -2 0 95 1 94
-41 1 c-22 0 -57 1 -77 2 -20 1 -45 0 -55 -3z"/>
<path d="M2998 2642 c-16 -3 -18 -16 -18 -96 l0 -93 95 -1 95 -2 0 95 0 95
-52 1 c-29 0 -64 1 -78 2 -14 2 -33 1 -42 -1z"/>
<path d="M3202 2635 c-3 -5 -6 -54 -6 -110 l-1 -100 -40 0 -40 0 0 -93 c0 -55
4 -92 10 -93 5 -1 24 -2 40 -3 l30 -1 0 -108 0 -108 109 3 109 3 1 308 c1 300
1 307 -19 308 -120 4 -188 2 -193 -6z"/>
<path d="M1630 2330 l0 -311 108 3 107 3 2 75 c1 41 2 89 2 106 1 30 3 32 39
30 l37 -1 3 96 3 96 -36 -2 c-20 -1 -39 3 -42 9 -4 5 -6 54 -5 108 l1 98 -109
0 -110 0 0 -310z"/>
<path d="M1959 2422 c-7 -44 -3 -182 5 -183 66 -6 88 -3 95 11 10 19 8 157 -2
166 -10 10 -97 15 -98 6z"/>
<path d="M2984 2415 c-3 -7 -4 -49 -2 -96 l3 -83 50 0 50 0 0 94 0 94 -49 1
c-27 1 -50 -4 -52 -10z"/>
<path d="M1878 2203 c-4 -7 -3 -153 1 -176 0 -4 42 -6 93 -5 l92 3 0 90 0 90
-91 3 c-50 1 -93 -1 -95 -5z"/>
<path d="M2980 2115 l0 -95 95 0 95 0 0 95 0 95 -95 0 -95 0 0 -95z"/>
<path d="M1640 1992 c-6 -2 -10 -124 -10 -338 l0 -334 48 -1 c26 0 58 -2 70
-3 42 -5 48 13 46 133 l-1 111 28 0 28 0 0 116 c-1 85 3 119 12 125 7 4 16 6
20 3 4 -2 11 0 14 6 9 15 10 168 1 177 -7 7 -236 11 -256 5z"/>
<path d="M1939 1992 c-13 -2 -15 -20 -10 -168 1 -19 7 -21 66 -20 36 0 66 5
68 10 3 10 2 163 -2 176 -1 5 -97 7 -122 2z"/>
<path d="M2983 1984 c-2 -6 -3 -49 -1 -95 l3 -84 65 0 65 0 0 95 1 95 -64 0
c-38 0 -66 -4 -69 -11z"/>
<path d="M3164 1992 c-20 -3 -22 -8 -20 -95 1 -91 1 -92 26 -92 l25 0 0 -120
1 -120 27 -3 27 -3 0 -119 0 -118 33 -3 c17 -2 55 -2 82 1 l50 5 0 332 c0 183
-3 333 -7 334 -20 3 -226 4 -244 1z"/>
<path d="M1877 1773 c-2 -4 -3 -53 -3 -108 l2 -100 88 -3 c49 -2 92 1 95 7 3
5 6 53 5 108 l0 98 -91 3 c-50 1 -93 -1 -96 -5z"/>
<path d="M2987 1773 c-4 -3 -7 -53 -7 -110 l0 -103 95 0 c106 0 96 -9 96 85 0
25 0 65 0 90 l-1 45 -88 0 c-49 0 -92 -3 -95 -7z"/>
<path d="M1824 1531 c-2 -2 -4 -51 -4 -108 0 -100 1 -103 23 -104 188 -4 1370
1 1375 6 11 11 9 196 -3 203 -11 7 -1384 10 -1391 3z"/>
<path d="M1654 1292 c-20 -3 -22 -9 -23 -93 l-1 -89 32 -20 c17 -10 35 -17 40
-14 9 6 11 -6 9 -60 -1 -23 4 -43 13 -50 8 -6 16 -27 18 -46 l3 -35 781 0 780
0 -1 30 c-1 39 4 55 19 55 7 0 11 18 11 48 0 26 5 49 10 50 25 9 65 37 66 47
5 66 2 168 -5 172 -9 6 -1714 10 -1752 5z"/>
<path d="M4037 1042 c-2 -4 -4 -22 -5 -39 -2 -24 2 -33 13 -33 11 0 15 -11 15
-42 l0 -43 633 0 632 0 3 27 c3 22 -1 27 -24 30 -19 2 -28 10 -30 26 -3 14 1
22 11 23 8 1 21 2 28 3 6 0 13 13 15 28 l3 27 -645 0 c-355 0 -647 -3 -649 -7z"/>
<path d="M1012 913 l3 -28 340 0 c187 -1 345 1 351 3 6 1 10 13 9 25 l-2 22
-352 3 -352 2 3 -27z"/>
<path d="M3330 915 c0 -17 6 -25 18 -26 60 -4 675 -3 680 1 4 3 7 15 8 28 l1
22 -354 0 -353 0 0 -25z"/>
</g>
</svg>
