<?xml version="1.0" encoding="UTF-8"?>
<svg width="459px" height="500px" viewBox="0 0 459 500" version="1.1" xmlns="http://www.w3.org/2000/svg" xmlns:xlink="http://www.w3.org/1999/xlink">
    <!-- Generator: Sketch 64 (93537) - https://sketch.com -->
    <title>logo-white</title>
    <desc>Created with Sketch.</desc>
    <g id="Page-1" stroke="none" stroke-width="1" fill="none" fill-rule="evenodd">
        <g id="logo-white" fill="#FFFFFF" fill-rule="nonzero">
            <polygon id="Path" points="243.208 475.7 313.408 475.7 313.408 481.099 243.208 481.099"></polygon>
            <polygon id="Path" points="11.008 475.7 81.208 475.7 81.208 481.099 11.008 481.099"></polygon>
            <path d="M162.208,238.123 C138.35,238.123 119.008,257.465 119.008,281.323 L119.008,413.623 L205.408,413.623 L205.408,281.323 C205.408,257.465 186.066,238.123 162.208,238.123 L162.208,238.123 Z M199.911,278.623 L183.634,278.623 C182.415,268.854 174.677,261.116 164.908,259.897 L164.908,243.62 C183.632,244.942 198.589,259.899 199.911,278.623 Z M146.008,365.023 L146.008,327.223 L178.408,327.223 L178.408,365.023 L146.008,365.023 Z M178.408,370.424 L178.408,408.224 L146.008,408.224 L146.008,370.424 L178.408,370.424 Z M140.607,284.023 L140.607,321.823 L124.407,321.823 L124.407,284.023 L140.607,284.023 Z M162.208,265.123 C170.235,265.123 176.894,270.962 178.18,278.623 L146.236,278.623 C147.522,270.962 154.181,265.123 162.208,265.123 L162.208,265.123 Z M178.408,284.023 L178.408,321.823 L146.008,321.823 L146.008,284.023 L178.408,284.023 Z M140.607,327.224 L140.607,365.024 L124.407,365.024 L124.407,327.224 L140.607,327.224 Z M183.808,327.224 L200.008,327.224 L200.008,365.024 L183.808,365.024 L183.808,327.224 Z M183.808,321.823 L183.808,284.023 L200.008,284.023 L200.008,321.823 L183.808,321.823 Z M159.508,243.62 L159.508,259.897 C149.739,261.116 142.001,268.854 140.782,278.623 L124.505,278.623 C125.826,259.899 140.784,244.942 159.508,243.62 L159.508,243.62 Z M124.408,370.424 L140.608,370.424 L140.608,408.224 L124.408,408.224 L124.408,370.424 Z M183.808,408.224 L183.808,370.424 L200.008,370.424 L200.008,408.224 L183.808,408.224 Z" id="Shape"></path>
            <polygon id="Path" points="208.107 392.023 227.007 392.023 227.007 413.623 208.107 413.623"></polygon>
            <polygon id="Path" points="208.107 370.424 221.607 370.424 221.607 389.323 208.107 389.323"></polygon>
            <polygon id="Path" points="208.107 348.823 227.007 348.823 227.007 367.723 208.107 367.723"></polygon>
            <polygon id="Path" points="208.107 327.224 218.907 327.224 218.907 346.123 208.107 346.123"></polygon>
            <polygon id="Path" points="208.107 305.623 227.007 305.623 227.007 324.523 208.107 324.523"></polygon>
            <polygon id="Path" points="208.107 284.023 221.607 284.023 221.607 302.923 208.107 302.923"></polygon>
            <polygon id="Path" points="92.008 416.323 232.408 416.323 232.408 437.924 92.008 437.924"></polygon>
            <polygon id="Path" points="97.408 392.023 116.308 392.023 116.308 413.623 97.408 413.623"></polygon>
            <polygon id="Path" points="102.808 370.424 116.308 370.424 116.308 389.323 102.808 389.323"></polygon>
            <polygon id="Path" points="97.408 348.823 116.308 348.823 116.308 367.723 97.408 367.723"></polygon>
            <polygon id="Path" points="105.508 327.224 116.308 327.224 116.308 346.123 105.508 346.123"></polygon>
            <polygon id="Path" points="97.408 305.623 116.308 305.623 116.308 324.523 97.408 324.523"></polygon>
            <polygon id="Path" points="102.808 284.023 116.308 284.023 116.308 302.923 102.808 302.923"></polygon>
            <path d="M215.397,244.334 L200.103,255.446 C204.904,262.467 207.806,270.889 208.069,279.973 L214.823,279.973 L226.973,279.973 C226.703,266.738 222.463,254.479 215.397,244.334 Z" id="Path"></path>
            <path d="M162.19,216.523 C155.673,216.523 149.383,217.489 143.45,219.279 L147.496,231.73 L149.293,237.263 C152.362,236.366 155.563,235.78 158.861,235.542 C159.961,235.463 161.07,235.423 162.19,235.423 C166.668,235.423 170.995,236.067 175.086,237.262 L180.93,219.279 C174.997,217.489 168.707,216.523 162.19,216.523 Z" id="Path"></path>
            <path d="M180.112,230.535 L177.655,238.097 C185.985,241.077 193.201,246.397 198.514,253.264 L204.374,249.007 C198.273,240.642 189.862,234.154 180.112,230.535 L180.112,230.535 Z" id="Path"></path>
            <path d="M118.471,251.228 L108.984,244.335 C101.918,254.48 97.679,266.739 97.408,279.974 L109.557,279.974 L116.311,279.974 C116.574,270.89 119.476,262.468 124.277,255.447 L118.471,251.228 Z" id="Path"></path>
            <path d="M120.006,249.006 L125.867,253.263 C131.18,246.396 138.396,241.076 146.726,238.096 L144.269,230.534 C134.519,234.154 126.107,240.642 120.006,249.006 Z" id="Path"></path>
            <path d="M302.607,456.8 C302.607,448.7 302.607,200.3 302.607,200.3 L297.208,200.3 L297.208,456.8 C297.208,462.2 291.808,462.2 291.808,456.8 C291.808,452.313 291.808,266.617 291.808,200.3 L286.409,200.3 L286.409,456.8 C286.409,462.2 281.009,462.2 281.009,456.8 C281.009,452.313 281.009,266.617 281.009,200.3 L275.609,200.3 L275.609,456.8 C275.609,462.2 270.21,462.2 270.21,456.8 C270.21,452.313 270.21,266.617 270.21,200.3 L254.01,200.3 L254.01,456.8 C254.01,464.901 245.91,464.901 245.91,464.901 L245.91,473.001 L310.71,473.001 L310.71,464.901 C310.708,464.9 302.607,464.9 302.607,456.8 L302.607,456.8 Z" id="Path"></path>
            <path d="M70.408,456.8 C70.408,448.7 70.408,200.3 70.408,200.3 L65.008,200.3 L65.008,456.8 C65.008,462.2 59.608,462.2 59.608,456.8 C59.608,452.313 59.608,266.617 59.608,200.3 L54.208,200.3 L54.208,456.8 C54.208,462.2 48.808,462.2 48.808,456.8 C48.808,452.313 48.808,266.617 48.808,200.3 L43.408,200.3 L43.408,456.8 C43.408,462.2 38.008,462.2 38.008,456.8 C38.008,452.313 38.008,266.617 38.008,200.3 L21.808,200.3 L21.808,456.8 C21.808,464.901 13.708,464.901 13.708,464.901 L13.708,473.001 L78.508,473.001 L78.508,464.901 C78.508,464.9 70.408,464.9 70.408,456.8 L70.408,456.8 Z" id="Path"></path>
            <path d="M243.208,440.623 L240.508,440.623 L83.908,440.623 L81.208,440.623 L73.108,440.623 L73.108,456.8 C73.108,459.782 76.735,462.2 81.208,462.2 L81.208,473 L83.908,473 L83.908,481.1 L240.508,481.1 L240.508,473 L243.208,473 L243.208,462.2 C247.682,462.2 251.308,459.782 251.308,456.8 L251.308,440.623 L243.208,440.623 Z" id="Path"></path>
            <polygon id="Path" points="73.107 386.623 73.107 389.324 73.107 408.224 73.107 413.623 73.107 437.924 89.308 437.924 89.308 413.623 94.708 413.623 94.708 389.324 100.107 389.324 100.107 370.424 73.107 370.424"></polygon>
            <polygon id="Path" points="94.708 327.224 94.708 305.623 73.107 305.623 73.107 367.724 94.708 367.724 94.708 346.123 102.808 346.123 102.808 327.224"></polygon>
            <polygon id="Path" points="224.308 389.324 229.708 389.324 229.708 413.623 235.107 413.623 235.107 437.924 251.308 437.924 251.308 413.623 251.308 389.324 251.308 370.424 224.308 370.424"></polygon>
            <polygon id="Path" points="229.708 305.623 251.308 305.623 251.308 367.724 229.708 367.724"></polygon>
            <polygon id="Path" points="221.607 327.224 232.408 327.224 232.408 346.123 221.607 346.123"></polygon>
            <polygon id="Path" points="73.107 281.323 100.107 281.323 100.107 302.924 73.107 302.924"></polygon>
            <polygon id="Path" points="224.308 281.323 251.308 281.323 251.308 302.924 224.308 302.924"></polygon>
            <path d="M307.8,448.7 C307.8,459.5 321.3,459.5 321.3,459.5 L361.8,459.5 C361.8,459.5 375.3,462.2 375.3,448.7 C375.3,435.2 375.3,159.5 375.3,151.4 C375.3,146 367.199,151.4 367.199,151.4 C367.199,151.4 367.199,440.6 367.199,446 C367.199,451.4 361.8,451.4 361.8,451.4 L321.3,451.4 C321.3,451.4 315.9,451.4 315.9,446 C315.9,440.6 315.9,151.4 315.9,151.4 C315.9,151.4 307.8,146 307.8,151.4 L307.8,448.7 Z" id="Path"></path>
            <path d="M380.699,448.779 C380.699,459.58 394.199,459.58 394.199,459.58 L434.699,459.58 C434.699,459.58 448.199,462.279 448.199,448.779 C448.199,435.279 448.199,97.4 448.199,89.3 C448.199,83.9 440.099,89.3 440.099,89.3 C440.099,89.3 440.099,440.68 440.099,446.08 C440.099,451.479 434.699,451.479 434.699,451.479 L394.199,451.479 C394.199,451.479 388.8,451.479 388.8,446.08 C388.8,440.68 388.8,89.3 388.8,89.3 C388.8,89.3 380.699,83.9 380.699,89.3 L380.699,448.779 Z" id="Path"></path>
            <path d="M0,0.5 L0,500 L459,500 L459,0.5 L0,0.5 Z M453.6,486.5 L5.4,486.5 L5.4,16.7 L453.6,16.7 L453.6,486.5 Z" id="Shape"></path>
            <path d="M73.107,205.7 L73.107,278.623 L94.766,278.623 C95.343,263.965 100.594,250.508 109.069,239.7 L117.881,246.102 C124.122,237.727 132.621,231.135 142.476,227.226 L139.405,217.774 C146.528,215.218 154.205,213.823 162.207,213.823 C170.082,213.823 177.639,215.174 184.665,217.652 L181.523,227.323 C191.378,231.232 199.877,237.825 206.118,246.2 L215.242,239.571 C223.778,250.4 229.07,263.906 229.649,278.623 L251.307,278.623 L251.307,205.7 L73.107,205.7 Z" id="Path"></path>
            <polygon id="Path" points="437.399 475.7 437.399 470.3 443.008 470.3 443.008 464.9 313.408 464.9 313.408 473 316.107 473 316.107 481.1 443.008 481.1 443.008 475.7"></polygon>
            <polygon id="Path" points="364.5 162.5 318.6 162.5 318.6 167.9 324 167.9 324 446 326.7 446 326.7 167.9 332.1 167.9 332.1 446 334.8 446 334.8 167.9 340.199 167.9 340.199 446 342.899 446 342.899 167.9 348.3 167.9 348.3 446 351 446 351 167.9 356.399 167.9 356.399 446 359.1 446 359.1 167.9 364.5 167.9"></polygon>
            <polygon id="Path" points="437.399 100.4 391.5 100.4 391.5 105.8 396.9 105.8 396.9 446 399.6 446 399.6 105.8 405 105.8 405 446 407.699 446 407.699 105.8 413.1 105.8 413.1 446 415.8 446 415.8 105.8 421.199 105.8 421.199 446 423.899 446 423.899 105.8 429.3 105.8 429.3 446 432 446 432 105.8 437.399 105.8"></polygon>
            <path d="M18.9,45.356 C18.9,36.236 18.9,34.556 18.761,32.636 C18.622,30.596 18.067,29.636 15.775,29.216 C15.219,29.096 14.039,29.036 13.067,29.036 C12.303,29.036 11.887,28.916 11.887,28.495 C11.887,28.075 12.373,27.955 13.414,27.955 C15.289,27.955 17.303,28.015 19.039,28.015 C20.845,28.075 22.441,28.135 23.414,28.135 C25.636,28.135 39.455,28.135 40.774,28.074 C42.093,27.954 43.205,27.834 43.76,27.715 C44.107,27.654 44.524,27.475 44.871,27.475 C45.218,27.475 45.288,27.715 45.288,28.015 C45.288,28.435 44.941,29.155 44.732,31.915 C44.662,32.515 44.524,35.155 44.385,35.874 C44.316,36.174 44.177,36.534 43.691,36.534 C43.205,36.534 43.066,36.234 43.066,35.694 C43.066,35.274 42.997,34.254 42.649,33.534 C42.163,32.454 41.469,31.734 37.997,31.374 C36.816,31.254 29.525,31.134 28.136,31.134 C27.789,31.134 27.65,31.314 27.65,31.734 L27.65,46.914 C27.65,47.334 27.719,47.574 28.136,47.574 C29.664,47.574 37.649,47.574 39.247,47.454 C40.914,47.334 41.955,47.154 42.58,46.554 C43.066,46.074 43.344,45.774 43.691,45.774 C43.968,45.774 44.177,45.894 44.177,46.253 C44.177,46.613 43.899,47.573 43.621,50.633 C43.552,51.833 43.343,54.234 43.343,54.654 C43.343,55.133 43.343,55.794 42.718,55.794 C42.232,55.794 42.093,55.554 42.093,55.254 C42.024,54.654 42.024,53.874 41.816,53.094 C41.469,51.894 40.497,50.994 37.927,50.754 C36.608,50.634 29.733,50.574 28.066,50.574 C27.719,50.574 27.649,50.814 27.649,51.174 L27.649,55.914 C27.649,57.954 27.58,63.474 27.649,65.214 C27.788,69.354 28.899,70.254 35.982,70.254 C37.787,70.254 40.704,70.254 42.509,69.534 C44.315,68.814 45.148,67.554 45.634,65.094 C45.773,64.434 45.912,64.195 46.398,64.195 C46.954,64.195 46.954,64.674 46.954,65.275 C46.954,66.655 46.398,70.735 46.051,71.935 C45.565,73.496 44.94,73.496 42.301,73.496 C37.093,73.496 33.274,73.376 30.287,73.316 C27.301,73.196 25.148,73.136 23.065,73.136 C22.301,73.136 20.773,73.136 19.107,73.196 C17.51,73.196 15.704,73.316 14.315,73.316 C13.412,73.316 12.926,73.136 12.926,72.716 C12.926,72.416 13.204,72.236 14.037,72.236 C15.079,72.236 15.912,72.116 16.537,71.996 C17.926,71.756 18.273,70.435 18.551,68.696 C18.899,66.176 18.899,61.436 18.899,55.916 L18.899,45.356 L18.9,45.356 Z" id="Path"></path>
            <path d="M60.011,49.496 C60.011,41.756 60.011,40.316 59.942,38.696 C59.803,36.956 59.248,36.416 57.303,35.936 C56.817,35.816 55.775,35.756 54.872,35.756 C54.247,35.756 53.83,35.576 53.83,35.216 C53.83,34.856 54.316,34.736 55.219,34.736 C58.413,34.736 62.302,34.856 64.038,34.856 C65.913,34.856 70.288,34.736 73.968,34.736 C81.607,34.736 91.885,34.736 98.551,40.556 C101.606,43.196 104.315,47.455 104.315,53.515 C104.315,59.935 101.121,64.795 97.648,67.735 C94.87,70.135 88.412,73.735 77.162,73.735 C74.94,73.735 72.301,73.555 69.87,73.435 C67.44,73.255 65.218,73.135 63.69,73.135 C62.996,73.135 61.676,73.195 60.218,73.195 C58.76,73.255 57.232,73.315 55.982,73.315 C55.218,73.315 54.802,73.135 54.802,72.774 C54.802,72.535 55.01,72.234 55.774,72.234 C56.677,72.234 57.371,72.174 57.927,72.054 C59.177,71.814 59.524,70.854 59.732,69.354 C60.01,67.194 60.01,63.174 60.01,58.494 L60.01,49.496 L60.011,49.496 Z M68.205,55.136 C68.205,60.536 68.274,64.436 68.344,65.456 C68.414,66.716 68.552,68.516 69.038,69.056 C69.802,70.016 72.233,71.096 77.024,71.096 C82.579,71.096 86.676,70.256 90.357,67.616 C94.315,64.796 95.565,60.236 95.565,54.956 C95.565,48.476 92.579,44.276 89.871,42.236 C84.246,37.916 77.58,37.376 72.788,37.376 C71.538,37.376 69.524,37.496 69.038,37.736 C68.483,37.916 68.274,38.156 68.274,38.756 C68.205,40.496 68.205,44.696 68.205,48.715 L68.205,55.136 Z" id="Shape"></path>
            <path d="M117.024,49.496 C117.024,41.756 117.024,40.316 116.954,38.696 C116.815,36.956 116.19,36.356 114.871,35.996 C114.176,35.816 113.413,35.756 112.649,35.756 C112.024,35.756 111.676,35.636 111.676,35.156 C111.676,34.856 112.162,34.736 113.134,34.736 C115.426,34.736 119.592,34.856 121.328,34.856 C122.856,34.856 126.814,34.736 129.175,34.736 C129.939,34.736 130.425,34.856 130.425,35.156 C130.425,35.636 130.078,35.756 129.452,35.756 C128.827,35.756 128.341,35.816 127.647,35.936 C125.98,36.176 125.494,36.896 125.355,38.696 C125.216,40.316 125.216,41.756 125.216,49.496 L125.216,58.496 C125.216,63.416 125.216,67.496 125.494,69.656 C125.702,71.036 126.119,71.816 127.925,72.055 C128.758,72.175 130.147,72.235 131.05,72.235 C131.744,72.235 132.022,72.535 132.022,72.775 C132.022,73.135 131.536,73.316 130.841,73.316 C126.813,73.316 122.647,73.136 120.98,73.136 C119.591,73.136 115.424,73.316 112.994,73.316 C112.23,73.316 111.813,73.136 111.813,72.775 C111.813,72.536 112.021,72.235 112.785,72.235 C113.688,72.235 114.382,72.175 114.938,72.055 C116.188,71.815 116.535,71.095 116.744,69.595 C117.022,67.495 117.022,63.415 117.022,58.495 L117.022,49.496 L117.024,49.496 Z" id="Path"></path>
            <path d="M149.107,66.356 C149.246,70.316 150.01,71.516 151.19,71.876 C152.232,72.176 153.412,72.236 154.384,72.236 C155.078,72.236 155.426,72.476 155.426,72.776 C155.426,73.196 154.87,73.317 154.037,73.317 C150.079,73.317 147.232,73.137 146.121,73.137 C145.565,73.137 142.649,73.317 139.524,73.317 C138.691,73.317 138.135,73.257 138.135,72.776 C138.135,72.476 138.552,72.236 139.107,72.236 C139.94,72.236 141.052,72.176 141.885,71.996 C143.482,71.636 143.691,70.256 143.76,65.816 L144.316,35.576 C144.316,34.556 144.733,33.836 145.358,33.836 C146.122,33.836 146.955,34.616 147.997,35.516 C148.761,36.176 157.928,44.276 166.816,51.776 C170.983,55.316 179.107,62.515 180.01,63.235 L180.288,63.235 L179.663,40.556 C179.594,37.436 179.038,36.535 177.58,36.056 C176.677,35.756 175.219,35.756 174.385,35.756 C173.621,35.756 173.413,35.516 173.413,35.216 C173.413,34.796 174.038,34.736 174.94,34.736 C178.134,34.736 181.398,34.856 182.718,34.856 C183.412,34.856 185.704,34.736 188.69,34.736 C189.523,34.736 190.079,34.796 190.079,35.216 C190.079,35.516 189.732,35.756 189.037,35.756 C188.412,35.756 187.926,35.756 187.162,35.936 C185.495,36.356 185.009,37.256 184.94,40.136 L184.246,72.296 C184.246,73.436 183.76,73.916 183.273,73.916 C182.231,73.916 181.398,73.376 180.773,72.836 C176.954,69.776 169.315,63.476 162.926,58.136 C156.26,52.616 149.801,46.437 148.621,45.536 L148.413,45.536 L149.107,66.356 Z" id="Path"></path>
            <path d="M203.689,49.496 C203.689,41.756 203.689,40.316 203.62,38.696 C203.481,36.956 202.925,36.416 200.981,35.936 C200.495,35.816 199.454,35.756 198.551,35.756 C197.926,35.756 197.509,35.576 197.509,35.216 C197.509,34.856 197.995,34.736 198.898,34.736 C202.092,34.736 205.981,34.856 207.162,34.856 C210.218,34.856 214.245,34.736 216.329,34.736 C227.371,34.736 229.315,39.656 229.315,42.356 C229.315,46.316 225.912,49.376 222.44,51.295 C227.44,52.675 233.69,56.335 233.69,62.335 C233.69,67.795 228.69,73.435 217.44,73.435 C216.746,73.435 214.663,73.375 212.579,73.255 C210.496,73.195 208.343,73.135 207.371,73.135 C206.677,73.135 205.357,73.195 203.899,73.195 C202.441,73.255 200.913,73.315 199.663,73.315 C198.899,73.315 198.482,73.135 198.482,72.774 C198.482,72.535 198.691,72.234 199.455,72.234 C200.357,72.234 201.052,72.174 201.607,72.054 C202.857,71.814 203.205,70.854 203.413,69.354 C203.691,67.194 203.691,63.174 203.691,58.494 L203.691,49.496 L203.689,49.496 Z M211.605,50.336 C211.605,50.756 211.813,50.816 212.022,50.876 C212.577,50.996 213.48,51.056 214.869,51.056 C216.883,51.056 218.619,50.876 219.661,50.156 C221.258,49.076 222.438,47.216 222.438,44.756 C222.438,41.336 220.077,37.076 214.799,37.076 C213.966,37.076 212.785,37.076 212.16,37.196 C211.743,37.256 211.604,37.496 211.604,38.036 L211.604,50.336 L211.605,50.336 Z M211.605,65.336 C211.605,68.696 211.813,69.716 213.758,70.376 C215.355,70.916 216.744,70.976 218.133,70.976 C221.397,70.976 225.633,69.416 225.633,63.776 C225.633,61.436 224.452,57.416 219.869,54.716 C218.619,53.936 216.952,53.397 214.592,53.397 L211.953,53.397 C211.745,53.397 211.606,53.457 211.606,53.756 L211.606,65.336 L211.605,65.336 Z" id="Shape"></path>
            <path d="M245.494,49.496 C245.494,41.756 245.563,40.316 245.425,38.696 C245.286,36.896 244.731,36.416 242.786,35.936 C242.3,35.816 241.258,35.756 240.425,35.756 C239.731,35.756 239.383,35.576 239.383,35.216 C239.383,34.856 239.8,34.736 240.703,34.736 C243.967,34.736 248.063,34.856 249.869,34.856 C251.396,34.856 255.494,34.736 257.717,34.736 C258.619,34.736 259.035,34.856 259.035,35.216 C259.035,35.576 258.688,35.756 258.063,35.756 C257.369,35.756 257.021,35.816 256.257,35.936 C254.659,36.176 254.174,36.896 254.034,38.696 C253.895,40.316 253.895,41.756 253.895,49.496 L253.895,56.636 C253.895,64.076 255.562,66.956 258.548,68.996 C261.256,70.855 264.172,71.036 266.256,71.036 C268.895,71.036 272.02,70.376 274.45,68.336 C277.852,65.576 277.991,61.136 277.991,55.916 L277.991,49.496 C277.991,41.756 277.922,40.316 277.852,38.696 C277.713,36.956 277.227,36.416 275.283,35.936 C274.797,35.816 273.756,35.756 273.06,35.756 C272.367,35.756 272.019,35.576 272.019,35.216 C272.019,34.856 272.435,34.736 273.269,34.736 C276.394,34.736 280.491,34.856 280.56,34.856 C281.254,34.856 285.352,34.736 287.713,34.736 C288.546,34.736 288.963,34.856 288.963,35.216 C288.963,35.576 288.615,35.756 287.921,35.756 C287.227,35.756 286.879,35.816 286.115,35.936 C284.448,36.176 284.032,36.896 283.893,38.696 C283.823,40.316 283.754,41.756 283.754,49.496 L283.754,54.956 C283.754,60.656 283.059,66.656 277.92,70.316 C273.615,73.436 268.962,73.976 265.004,73.976 C261.81,73.976 255.49,73.856 251.046,70.497 C247.921,68.157 245.49,64.377 245.49,56.997 L245.49,49.496 L245.494,49.496 Z" id="Path"></path>
            <path d="M299.521,49.496 C299.521,41.756 299.521,40.316 299.452,38.696 C299.313,36.956 298.758,36.416 296.813,35.936 C296.327,35.816 295.286,35.756 294.382,35.756 C293.757,35.756 293.341,35.576 293.341,35.216 C293.341,34.856 293.827,34.736 294.73,34.736 C297.924,34.736 301.813,34.856 303.063,34.856 C305.146,34.856 310.702,34.736 312.577,34.736 C316.466,34.736 320.91,35.036 324.174,36.896 C325.91,37.916 328.48,40.496 328.48,43.916 C328.48,47.696 325.98,51.056 320.008,55.196 C325.424,60.956 329.73,65.576 333.41,68.756 C336.812,71.696 338.965,71.936 339.937,72.116 C340.562,72.236 340.91,72.236 341.396,72.236 C341.881,72.236 342.16,72.536 342.16,72.776 C342.16,73.196 341.743,73.317 340.979,73.317 L335.146,73.317 C331.743,73.317 330.076,73.017 328.479,72.297 C325.84,71.157 323.548,68.757 320.146,64.797 C317.715,62.037 315.146,58.617 314.382,57.837 C314.034,57.537 313.688,57.477 313.271,57.477 L307.785,57.357 C307.508,57.357 307.3,57.477 307.3,57.777 L307.3,58.497 C307.3,63.237 307.369,67.197 307.647,69.357 C307.856,70.857 308.133,71.817 310.008,72.057 C310.91,72.177 312.23,72.237 312.994,72.237 C313.48,72.237 313.758,72.537 313.758,72.777 C313.758,73.137 313.272,73.318 312.508,73.318 C308.966,73.318 303.897,73.138 302.994,73.138 C301.813,73.138 297.925,73.318 295.494,73.318 C294.73,73.318 294.313,73.138 294.313,72.777 C294.313,72.538 294.521,72.237 295.286,72.237 C296.188,72.237 296.883,72.177 297.438,72.057 C298.688,71.817 299.036,70.857 299.244,69.357 C299.521,67.197 299.521,63.177 299.521,58.497 L299.521,49.496 Z M307.3,53.456 C307.3,53.996 307.439,54.176 307.856,54.356 C309.175,54.716 310.981,54.836 312.508,54.836 C314.939,54.836 315.772,54.656 316.814,53.996 C318.688,52.856 320.772,50.636 320.772,46.436 C320.772,39.236 315.078,37.375 311.466,37.375 C309.939,37.375 308.481,37.436 307.856,37.556 C307.439,37.676 307.3,37.856 307.3,38.276 L307.3,53.456 Z" id="Shape"></path>
            <path d="M384.104,69.896 C384.104,71.276 384.104,71.336 383.34,71.696 C379.242,73.436 373.201,73.976 368.41,73.976 C353.41,73.976 340.146,68.096 340.146,53.997 C340.146,45.837 345.215,40.137 350.84,37.317 C356.673,34.377 362.159,34.017 367.298,34.017 C371.534,34.017 376.881,34.617 378.131,34.857 C379.381,35.037 381.533,35.337 382.991,35.397 C383.686,35.457 383.825,35.637 383.825,35.997 C383.825,36.597 383.408,37.977 383.408,44.397 C383.408,45.177 383.061,45.537 382.575,45.537 C382.158,45.537 382.019,45.297 381.95,44.877 C381.811,43.737 381.464,42.117 379.867,40.677 C378.061,39.057 373.477,36.777 366.603,36.777 C363.27,36.777 359.034,36.837 354.797,39.777 C351.395,42.177 349.172,45.957 349.172,52.197 C349.172,63.176 357.366,71.156 370.422,71.156 C372.019,71.156 373.269,71.156 374.727,70.616 C375.63,70.256 375.908,69.716 375.908,68.816 L375.908,64.136 C375.908,61.616 375.908,59.697 375.839,58.136 C375.77,56.396 375.145,55.856 373.2,55.376 C372.714,55.256 371.673,55.196 370.839,55.196 C370.284,55.196 369.867,54.956 369.867,54.656 C369.867,54.236 370.352,54.176 371.186,54.176 C374.38,54.176 378.755,54.296 380.561,54.296 C382.505,54.296 385.7,54.176 387.713,54.176 C388.546,54.176 388.963,54.237 388.963,54.656 C388.963,54.956 388.615,55.196 388.199,55.196 C387.713,55.196 387.226,55.256 386.532,55.376 C384.865,55.616 384.24,56.336 384.172,58.136 C384.102,59.697 384.102,61.736 384.102,64.256 L384.102,69.896 L384.104,69.896 Z" id="Path"></path>
            <path d="M432.853,51.356 C432.992,51.356 433.201,51.296 433.201,50.996 L433.201,49.916 C433.201,42.176 433.132,40.316 433.061,38.696 C432.922,36.956 432.367,36.416 430.422,35.936 C429.936,35.816 428.895,35.756 428.061,35.756 C427.368,35.756 427.02,35.576 427.02,35.216 C427.02,34.856 427.436,34.736 428.339,34.736 C431.603,34.736 435.908,34.856 437.506,34.856 C438.964,34.856 442.991,34.736 445.352,34.736 C446.255,34.736 446.672,34.856 446.672,35.216 C446.672,35.576 446.255,35.756 445.561,35.756 C445.075,35.756 444.519,35.816 443.756,35.936 C442.158,36.176 441.672,36.896 441.533,38.696 C441.394,40.316 441.394,41.756 441.394,49.496 L441.394,58.496 C441.394,63.176 441.394,67.196 441.671,69.416 C441.88,70.855 442.227,71.816 444.102,72.056 C444.935,72.176 446.254,72.236 447.226,72.236 C447.852,72.236 448.199,72.536 448.199,72.776 C448.199,73.136 447.713,73.317 446.949,73.317 C442.991,73.317 438.964,73.137 437.297,73.137 C435.908,73.137 431.603,73.317 429.241,73.317 C428.408,73.317 427.922,73.137 427.922,72.776 C427.922,72.537 428.2,72.236 428.895,72.236 C429.868,72.236 430.561,72.176 431.117,72.056 C432.367,71.816 432.715,70.856 432.923,69.356 C433.201,67.196 433.201,63.296 433.201,58.616 L433.201,54.716 C433.201,54.536 432.992,54.416 432.853,54.416 L409.798,54.416 C409.59,54.416 409.381,54.476 409.381,54.716 L409.381,58.616 C409.381,63.296 409.45,67.196 409.729,69.416 C409.937,70.855 410.284,71.816 412.09,72.056 C412.923,72.176 414.312,72.236 415.214,72.236 C415.908,72.236 416.187,72.536 416.187,72.776 C416.187,73.136 415.701,73.317 414.937,73.317 C410.979,73.317 406.743,73.137 405.006,73.137 C403.617,73.137 399.59,73.317 397.159,73.317 C396.395,73.317 395.978,73.137 395.978,72.776 C395.978,72.537 396.186,72.236 396.951,72.236 C397.853,72.236 398.548,72.176 399.103,72.056 C400.353,71.816 400.701,70.856 400.909,69.356 C401.186,67.196 401.186,63.176 401.186,58.496 L401.186,49.496 C401.186,41.756 401.186,40.316 401.117,38.696 C400.978,36.956 400.423,36.416 398.478,35.936 C397.992,35.816 396.951,35.756 396.047,35.756 C395.422,35.756 395.005,35.576 395.005,35.216 C395.005,34.856 395.491,34.736 396.325,34.736 C399.589,34.736 403.616,34.856 405.283,34.856 C406.741,34.856 410.977,34.736 413.407,34.736 C414.241,34.736 414.657,34.856 414.657,35.216 C414.657,35.576 414.31,35.756 413.547,35.756 C413.061,35.756 412.505,35.816 411.811,35.936 C410.144,36.176 409.658,36.896 409.519,38.696 C409.38,40.316 409.38,42.176 409.38,49.916 L409.38,50.996 C409.38,51.296 409.589,51.356 409.797,51.356 L432.853,51.356 Z" id="Path"></path>
            <path d="M27.581,115.22 C27.581,122.9 27.581,127.04 29.039,128.12 C30.22,129.019 32.025,129.44 37.442,129.44 C41.123,129.44 43.831,129.38 45.567,127.76 C46.4,126.98 47.234,125.3 47.372,124.16 C47.442,123.62 47.58,123.26 48.136,123.26 C48.622,123.26 48.691,123.56 48.691,124.281 C48.691,124.941 48.205,129.441 47.649,131.18 C47.232,132.5 46.885,132.8 43.274,132.8 C38.274,132.8 34.663,132.68 31.539,132.62 C28.414,132.5 25.914,132.44 23.067,132.44 C22.303,132.44 20.775,132.44 19.109,132.5 C17.512,132.5 15.706,132.62 14.317,132.62 C13.414,132.62 12.928,132.44 12.928,132.019 C12.928,131.719 13.206,131.54 14.039,131.54 C15.081,131.54 15.914,131.42 16.539,131.3 C17.928,131.06 18.275,129.74 18.553,128 C18.901,125.48 18.901,120.74 18.901,115.22 L18.901,104.66 C18.901,95.54 18.901,93.86 18.762,91.94 C18.623,89.9 18.068,88.94 15.776,88.52 C15.22,88.4 14.387,88.34 13.484,88.34 C12.72,88.34 12.304,88.22 12.304,87.8 C12.304,87.38 12.79,87.26 13.832,87.26 C17.096,87.26 21.471,87.44 23.346,87.44 C25.013,87.44 30.082,87.26 32.79,87.26 C33.762,87.26 34.248,87.38 34.248,87.8 C34.248,88.22 33.831,88.34 32.998,88.34 C32.234,88.34 31.123,88.4 30.29,88.52 C28.415,88.82 27.86,89.84 27.721,91.94 C27.582,93.86 27.582,95.54 27.582,104.66 L27.582,115.22 L27.581,115.22 Z" id="Path"></path>
            <path d="M59.524,108.8 C59.524,101.06 59.524,99.62 59.455,98 C59.316,96.261 58.691,95.66 57.372,95.3 C56.678,95.12 55.914,95.06 55.15,95.06 C54.525,95.06 54.178,94.94 54.178,94.46 C54.178,94.16 54.664,94.04 55.636,94.04 C57.928,94.04 62.094,94.16 63.83,94.16 C65.357,94.16 69.316,94.04 71.677,94.04 C72.441,94.04 72.927,94.16 72.927,94.46 C72.927,94.94 72.58,95.06 71.955,95.06 C71.33,95.06 70.844,95.12 70.15,95.24 C68.483,95.48 67.997,96.2 67.858,98 C67.719,99.62 67.719,101.061 67.719,108.8 L67.719,117.8 C67.719,122.72 67.719,126.8 67.997,128.96 C68.205,130.34 68.622,131.12 70.427,131.36 C71.26,131.48 72.65,131.54 73.552,131.54 C74.246,131.54 74.524,131.84 74.524,132.08 C74.524,132.44 74.038,132.62 73.344,132.62 C69.316,132.62 65.15,132.44 63.483,132.44 C62.094,132.44 57.928,132.62 55.497,132.62 C54.733,132.62 54.317,132.44 54.317,132.08 C54.317,131.84 54.525,131.54 55.289,131.54 C56.192,131.54 56.886,131.479 57.442,131.36 C58.692,131.12 59.039,130.4 59.247,128.9 C59.525,126.8 59.525,122.72 59.525,117.8 L59.525,108.8 L59.524,108.8 Z" id="Path"></path>
            <path d="M95.913,97.16 L86.816,97.34 C83.275,97.4 81.816,97.76 80.914,98.9 C80.289,99.62 80.011,100.28 79.872,100.64 C79.733,101.06 79.594,101.3 79.177,101.3 C78.76,101.3 78.622,101 78.622,100.46 C78.622,99.62 79.802,94.7 79.941,94.28 C80.08,93.62 80.288,93.32 80.635,93.32 C81.121,93.32 81.746,93.74 83.274,93.92 C85.079,94.1 87.371,94.16 89.384,94.16 L114.176,94.16 C116.12,94.16 117.44,94.04 118.343,93.92 C119.315,93.8 119.801,93.68 120.01,93.68 C120.427,93.68 120.496,93.98 120.496,94.76 C120.496,95.84 120.357,99.619 120.357,100.94 C120.288,101.48 120.149,101.78 119.801,101.78 C119.315,101.78 119.176,101.54 119.107,100.76 L119.038,100.22 C118.899,98.9 117.302,97.34 111.816,97.28 L104.108,97.16 L104.108,117.8 C104.108,122.48 104.177,126.5 104.455,128.72 C104.663,130.16 105.011,131.12 106.816,131.36 C107.649,131.48 109.038,131.54 109.941,131.54 C110.635,131.54 110.913,131.84 110.913,132.08 C110.913,132.44 110.427,132.62 109.732,132.62 C105.705,132.62 101.607,132.44 99.872,132.44 C98.483,132.44 94.316,132.62 91.886,132.62 C91.122,132.62 90.705,132.44 90.705,132.08 C90.705,131.84 90.913,131.54 91.677,131.54 C92.58,131.54 93.344,131.479 93.829,131.36 C95.079,131.12 95.427,130.16 95.635,128.66 C95.913,126.5 95.913,122.48 95.913,117.8 L95.913,97.16 Z" id="Path"></path>
            <path d="M131.746,108.8 C131.746,101.06 131.746,99.62 131.677,98 C131.538,96.261 130.982,95.721 129.038,95.24 C128.552,95.12 127.511,95.06 126.607,95.06 C125.982,95.06 125.565,94.88 125.565,94.52 C125.565,94.16 126.051,94.04 126.954,94.04 C130.148,94.04 134.037,94.16 135.773,94.16 C137.717,94.16 151.258,94.221 152.439,94.16 C153.55,94.1 154.522,93.92 155.008,93.86 C155.355,93.8 155.702,93.62 155.98,93.62 C156.327,93.62 156.397,93.86 156.397,94.1 C156.397,94.46 156.05,95.06 155.911,97.4 C155.842,97.94 155.703,100.16 155.564,100.76 C155.495,101 155.356,101.6 154.87,101.6 C154.453,101.6 154.384,101.36 154.384,100.94 C154.384,100.58 154.315,99.68 153.967,99.08 C153.481,98.181 152.995,97.46 149.939,97.22 C148.897,97.1 141.606,96.98 140.356,96.98 C140.078,96.98 139.939,97.16 139.939,97.46 L139.939,110.06 C139.939,110.36 140.009,110.6 140.356,110.6 C141.745,110.6 149.661,110.6 151.05,110.48 C152.508,110.36 153.342,110.18 153.967,109.7 C154.453,109.34 154.661,109.04 154.939,109.04 C155.217,109.04 155.425,109.28 155.425,109.58 C155.425,109.88 155.286,110.72 154.939,113.3 C154.8,114.32 154.661,116.36 154.661,116.719 C154.661,117.139 154.592,117.86 154.036,117.86 C153.619,117.86 153.481,117.68 153.481,117.44 C153.411,116.9 153.411,116.24 153.272,115.58 C152.925,114.56 152.161,113.78 149.87,113.6 C148.759,113.48 141.814,113.36 140.287,113.36 C140.009,113.36 139.939,113.6 139.939,113.9 L139.939,117.98 C139.939,119.72 139.87,124.04 139.939,125.54 C140.078,129.019 141.953,129.8 148.203,129.8 C149.8,129.8 152.37,129.74 153.967,129.14 C155.495,128.54 156.189,127.46 156.606,125.36 C156.745,124.82 156.884,124.58 157.3,124.58 C157.786,124.58 157.856,125.24 157.856,125.78 C157.856,126.92 157.37,130.4 157.023,131.42 C156.606,132.74 156.051,132.74 153.759,132.74 C149.176,132.74 145.495,132.68 142.509,132.56 C139.523,132.5 137.231,132.44 135.426,132.44 C134.732,132.44 133.412,132.5 131.954,132.5 C130.496,132.56 128.968,132.62 127.718,132.62 C126.954,132.62 126.537,132.44 126.537,132.08 C126.537,131.84 126.745,131.54 127.51,131.54 C128.412,131.54 129.107,131.479 129.662,131.36 C130.912,131.12 131.26,130.16 131.468,128.66 C131.746,126.5 131.746,122.48 131.746,117.8 L131.746,108.8 Z" id="Path"></path>
            <path d="M170.356,108.8 C170.356,101.06 170.356,99.62 170.287,98 C170.148,96.261 169.592,95.721 167.648,95.24 C167.162,95.12 166.12,95.06 165.218,95.06 C164.593,95.06 164.176,94.88 164.176,94.52 C164.176,94.16 164.662,94.04 165.565,94.04 C168.759,94.04 172.648,94.16 173.898,94.16 C175.981,94.16 181.537,94.04 183.412,94.04 C187.301,94.04 191.745,94.34 195.009,96.2 C196.745,97.22 199.314,99.8 199.314,103.22 C199.314,107 196.814,110.36 190.842,114.5 C196.259,120.26 200.564,124.88 204.244,128.06 C207.647,131 209.8,131.24 210.772,131.42 C211.397,131.54 211.744,131.54 212.23,131.54 C212.716,131.54 212.994,131.84 212.994,132.08 C212.994,132.5 212.577,132.62 211.813,132.62 L205.98,132.62 C202.578,132.62 200.911,132.32 199.313,131.599 C196.674,130.459 194.383,128.059 190.98,124.099 C188.549,121.339 185.98,117.919 185.216,117.14 C184.869,116.84 184.522,116.78 184.105,116.78 L178.619,116.66 C178.341,116.66 178.133,116.78 178.133,117.08 L178.133,117.8 C178.133,122.54 178.202,126.5 178.48,128.66 C178.688,130.16 178.966,131.12 180.841,131.36 C181.744,131.48 183.063,131.54 183.827,131.54 C184.313,131.54 184.591,131.84 184.591,132.08 C184.591,132.44 184.105,132.62 183.341,132.62 C179.799,132.62 174.731,132.44 173.828,132.44 C172.647,132.44 168.758,132.62 166.328,132.62 C165.564,132.62 165.147,132.44 165.147,132.08 C165.147,131.84 165.355,131.54 166.119,131.54 C167.022,131.54 167.717,131.479 168.272,131.36 C169.522,131.12 169.869,130.16 170.078,128.66 C170.356,126.5 170.356,122.48 170.356,117.8 L170.356,108.8 Z M178.134,112.76 C178.134,113.301 178.273,113.48 178.69,113.66 C180.009,114.02 181.815,114.14 183.343,114.14 C185.773,114.14 186.607,113.96 187.648,113.3 C189.523,112.16 191.606,109.94 191.606,105.74 C191.606,98.54 185.912,96.68 182.301,96.68 C180.773,96.68 179.315,96.74 178.69,96.86 C178.273,96.98 178.134,97.16 178.134,97.58 L178.134,112.76 Z" id="Shape"></path>
            <path d="M220.633,119.72 C220.286,119.72 220.216,119.781 220.077,120.08 L216.813,126.98 C216.188,128.24 215.911,129.5 215.911,130.1 C215.911,131 216.466,131.54 218.341,131.54 L219.244,131.54 C220.008,131.54 220.146,131.78 220.146,132.08 C220.146,132.5 219.799,132.62 219.174,132.62 C217.16,132.62 214.313,132.44 212.368,132.44 C211.743,132.44 208.479,132.62 205.285,132.62 C204.521,132.62 204.174,132.5 204.174,132.08 C204.174,131.78 204.382,131.54 204.868,131.54 C205.424,131.54 206.118,131.479 206.674,131.479 C209.452,131.12 210.493,129.56 211.743,126.979 L227.715,95.119 C228.409,93.68 228.896,93.079 229.521,93.079 C230.423,93.079 230.702,93.559 231.327,94.699 C232.785,97.519 242.993,118.159 246.883,125.899 C249.243,130.519 250.98,131.179 252.091,131.359 C252.993,131.479 253.688,131.539 254.382,131.539 C254.938,131.539 255.216,131.719 255.216,132.079 C255.216,132.499 254.868,132.619 252.576,132.619 C250.424,132.619 245.979,132.619 240.841,132.499 C239.73,132.439 239.035,132.439 239.035,132.079 C239.035,131.779 239.174,131.599 239.799,131.539 C240.216,131.478 240.633,130.999 240.355,130.399 L235.633,120.079 C235.494,119.779 235.285,119.719 235.008,119.719 L220.633,119.719 L220.633,119.72 Z M233.688,116.9 C233.965,116.9 234.035,116.78 233.965,116.6 L228.201,103.82 C228.132,103.64 228.062,103.34 227.923,103.34 C227.715,103.34 227.646,103.64 227.576,103.82 L221.674,116.54 C221.535,116.78 221.674,116.9 221.882,116.9 L233.688,116.9 Z" id="Shape"></path>
            <path d="M261.882,108.8 C261.882,101.06 261.882,99.62 261.813,98 C261.674,96.261 261.118,95.721 259.174,95.24 C258.688,95.12 257.646,95.06 256.743,95.06 C256.118,95.06 255.701,94.88 255.701,94.52 C255.701,94.16 256.187,94.04 257.09,94.04 C260.284,94.04 264.174,94.16 265.424,94.16 C267.507,94.16 273.063,94.04 274.938,94.04 C278.827,94.04 283.27,94.34 286.535,96.2 C288.27,97.22 290.841,99.8 290.841,103.22 C290.841,107 288.341,110.36 282.368,114.5 C287.784,120.26 292.091,124.88 295.77,128.06 C299.173,131 301.326,131.24 302.297,131.42 C302.922,131.54 303.27,131.54 303.756,131.54 C304.242,131.54 304.52,131.84 304.52,132.08 C304.52,132.5 304.103,132.62 303.339,132.62 L297.506,132.62 C294.104,132.62 292.437,132.32 290.84,131.599 C288.2,130.459 285.909,128.059 282.506,124.099 C280.076,121.339 277.506,117.919 276.742,117.14 C276.395,116.84 276.048,116.78 275.631,116.78 L270.146,116.66 C269.868,116.66 269.66,116.78 269.66,117.08 L269.66,117.8 C269.66,122.54 269.729,126.5 270.007,128.66 C270.216,130.16 270.493,131.12 272.368,131.36 C273.271,131.48 274.591,131.54 275.354,131.54 C275.84,131.54 276.118,131.84 276.118,132.08 C276.118,132.44 275.632,132.62 274.868,132.62 C271.327,132.62 266.258,132.44 265.354,132.44 C264.174,132.44 260.285,132.62 257.854,132.62 C257.09,132.62 256.674,132.44 256.674,132.08 C256.674,131.84 256.882,131.54 257.646,131.54 C258.549,131.54 259.244,131.479 259.799,131.36 C261.049,131.12 261.396,130.16 261.604,128.66 C261.882,126.5 261.882,122.48 261.882,117.8 L261.882,108.8 Z M269.659,112.76 C269.659,113.301 269.798,113.48 270.215,113.66 C271.534,114.02 273.34,114.14 274.867,114.14 C277.298,114.14 278.131,113.96 279.173,113.3 C281.048,112.16 283.131,109.94 283.131,105.74 C283.131,98.54 277.437,96.68 273.826,96.68 C272.298,96.68 270.84,96.74 270.215,96.86 C269.798,96.98 269.659,97.16 269.659,97.58 L269.659,112.76 Z" id="Shape"></path>
            <path d="M314.729,119.36 C314.729,116.6 314.173,115.52 313.34,114.02 C312.923,113.24 304.59,102.02 302.438,99.32 C300.91,97.46 299.66,96.26 298.479,95.72 C297.715,95.36 296.674,95.06 295.91,95.06 C295.425,95.06 295.008,94.88 295.008,94.52 C295.008,94.16 295.425,94.04 296.189,94.04 C297.23,94.04 301.814,94.16 303.828,94.16 C305.147,94.16 307.994,94.04 310.771,94.04 C311.328,94.04 311.674,94.16 311.674,94.52 C311.674,94.94 311.257,94.94 310.285,95.18 C309.799,95.3 309.452,95.54 309.452,95.96 C309.452,96.38 309.729,96.98 310.216,97.7 C311.327,99.261 319.313,111.2 320.355,112.64 C321.119,111.44 328.548,100.52 329.452,98.96 C330.077,97.82 330.355,96.92 330.355,96.26 C330.355,95.78 330.077,95.3 329.035,95.119 C328.48,94.999 327.925,94.939 327.925,94.519 C327.925,94.159 328.272,94.039 328.966,94.039 C330.981,94.039 333.133,94.159 334.939,94.159 C336.258,94.159 340.286,94.039 341.466,94.039 C342.16,94.039 342.577,94.159 342.577,94.459 C342.577,94.819 342.091,95.059 341.396,95.059 C340.771,95.059 339.66,95.299 338.757,95.659 C337.437,96.199 336.882,96.68 335.563,98.059 C333.548,100.099 324.799,112.219 323.688,114.378 C322.785,116.238 322.924,117.798 322.924,119.478 L322.924,123.558 C322.924,124.398 322.924,126.498 323.063,128.658 C323.202,130.158 323.757,131.118 325.563,131.358 C326.466,131.478 327.785,131.538 328.619,131.538 C329.313,131.538 329.66,131.838 329.66,132.078 C329.66,132.438 329.175,132.618 328.341,132.618 C324.522,132.618 320.425,132.438 318.758,132.438 C317.231,132.438 313.133,132.618 310.842,132.618 C310.008,132.618 309.523,132.498 309.523,132.078 C309.523,131.838 309.8,131.538 310.495,131.538 C311.329,131.538 312.093,131.477 312.647,131.358 C313.897,131.118 314.383,130.158 314.522,128.658 C314.731,126.498 314.731,124.398 314.731,123.558 L314.731,119.36 L314.729,119.36 Z" id="Path"></path>
            <path d="M15.081,189.824 C13.97,189.404 13.762,189.104 13.762,187.784 C13.762,184.484 14.039,180.884 14.109,179.924 C14.179,179.024 14.387,178.364 14.942,178.364 C15.567,178.364 15.636,178.904 15.636,179.384 C15.636,180.164 15.914,181.425 16.261,182.445 C17.789,186.884 21.886,188.505 26.191,188.505 C32.441,188.505 35.497,184.845 35.497,181.665 C35.497,178.725 34.455,175.965 28.691,172.065 L25.497,169.905 C17.858,164.745 15.22,160.545 15.22,155.685 C15.22,149.085 21.609,144.345 31.261,144.345 C35.775,144.345 38.692,144.945 40.497,145.365 C41.122,145.485 41.469,145.665 41.469,146.085 C41.469,146.865 41.191,148.605 41.191,153.285 C41.191,154.605 40.983,155.085 40.427,155.085 C39.941,155.085 39.732,154.725 39.732,154.005 C39.732,153.465 39.385,151.605 37.926,150.045 C36.884,148.905 34.871,147.105 30.357,147.105 C25.218,147.105 22.093,149.685 22.093,153.285 C22.093,156.045 23.69,158.145 29.454,161.925 L31.398,163.185 C39.8,168.645 42.787,172.785 42.787,178.485 C42.787,181.964 41.259,186.105 36.259,188.924 C32.787,190.844 28.898,191.384 25.218,191.384 C21.192,191.384 18.067,190.964 15.081,189.824 L15.081,189.824 Z" id="Path"></path>
            <path d="M60.565,177.645 C60.218,177.645 60.148,177.705 60.009,178.004 L56.745,184.904 C56.12,186.164 55.842,187.424 55.842,188.024 C55.842,188.923 56.398,189.463 58.273,189.463 L59.176,189.463 C59.94,189.463 60.078,189.703 60.078,190.003 C60.078,190.423 59.731,190.543 59.106,190.543 C57.092,190.543 54.245,190.363 52.3,190.363 C51.675,190.363 48.411,190.543 45.217,190.543 C44.453,190.543 44.106,190.423 44.106,190.003 C44.106,189.703 44.314,189.463 44.8,189.463 C45.356,189.463 46.05,189.403 46.606,189.403 C49.384,189.043 50.425,187.483 51.675,184.903 L67.647,153.044 C68.341,151.604 68.828,151.004 69.453,151.004 C70.356,151.004 70.634,151.483 71.259,152.624 C72.717,155.443 82.926,176.083 86.814,183.823 C89.175,188.443 90.911,189.103 92.022,189.283 C92.925,189.403 93.619,189.463 94.314,189.463 C94.87,189.463 95.147,189.643 95.147,190.003 C95.147,190.423 94.8,190.543 92.508,190.543 C90.355,190.543 85.911,190.543 80.772,190.423 C79.661,190.363 78.966,190.363 78.966,190.003 C78.966,189.703 79.105,189.524 79.73,189.463 C80.147,189.403 80.563,188.923 80.286,188.323 L75.564,178.003 C75.425,177.703 75.217,177.644 74.939,177.644 L60.565,177.644 L60.565,177.645 Z M73.621,174.824 C73.899,174.824 73.968,174.704 73.899,174.524 L68.135,161.744 C68.066,161.564 67.996,161.265 67.857,161.265 C67.649,161.265 67.579,161.565 67.51,161.744 L61.607,174.464 C61.468,174.704 61.607,174.824 61.815,174.824 L73.621,174.824 Z" id="Shape"></path>
            <path d="M110.008,175.724 C110.008,182.264 110.008,185.504 111.328,186.464 C112.37,187.244 114.73,187.544 119.453,187.544 C122.717,187.544 125.078,187.484 126.606,186.104 C127.37,185.444 127.995,184.004 128.133,183.044 C128.203,182.565 128.341,182.264 128.827,182.264 C129.244,182.264 129.383,182.804 129.383,183.404 C129.383,184.004 128.966,187.784 128.481,189.284 C128.064,190.424 127.786,190.664 124.592,190.664 C120.217,190.664 116.675,190.604 113.62,190.484 C110.564,190.424 107.995,190.364 105.495,190.364 C104.801,190.364 103.481,190.424 102.023,190.424 C100.565,190.484 99.037,190.544 97.787,190.544 C97.023,190.544 96.606,190.364 96.606,190.004 C96.606,189.764 96.814,189.464 97.578,189.464 C98.481,189.464 99.175,189.404 99.731,189.284 C100.981,189.044 101.328,188.084 101.537,186.584 C101.815,184.424 101.815,180.404 101.815,175.724 L101.815,166.724 C101.815,158.984 101.815,157.544 101.745,155.924 C101.606,154.184 101.051,153.644 99.106,153.164 C98.62,153.044 97.856,152.984 97.092,152.984 C96.397,152.984 96.05,152.804 96.05,152.444 C96.05,152.084 96.467,151.965 97.369,151.965 C100.216,151.965 104.105,152.085 105.771,152.085 C107.229,152.085 112.229,151.965 114.59,151.965 C115.492,151.965 115.909,152.085 115.909,152.444 C115.909,152.804 115.562,152.984 114.798,152.984 C114.104,152.984 113.131,153.045 112.437,153.164 C110.77,153.404 110.284,154.124 110.145,155.924 C110.006,157.544 110.006,158.984 110.006,166.724 L110.006,175.724 L110.008,175.724 Z" id="Path"></path>
            <path d="M132.092,171.225 C132.092,162.525 139.175,151.245 157.716,151.245 C173.133,151.245 182.716,158.625 182.716,170.325 C182.716,182.025 172.855,191.205 157.092,191.205 C139.314,191.204 132.092,180.284 132.092,171.225 L132.092,171.225 Z M173.618,172.185 C173.618,160.905 165.771,153.945 155.91,153.945 C149.104,153.945 141.118,157.065 141.118,169.665 C141.118,180.165 148.062,188.445 159.59,188.445 C163.896,188.444 173.618,186.704 173.618,172.185 L173.618,172.185 Z" id="Shape"></path>
            <path d="M197.924,183.584 C198.063,187.544 198.827,188.744 200.007,189.104 C201.049,189.404 202.229,189.464 203.201,189.464 C203.896,189.464 204.243,189.704 204.243,190.004 C204.243,190.424 203.687,190.544 202.854,190.544 C198.896,190.544 196.048,190.364 194.937,190.364 C194.381,190.364 191.465,190.544 188.34,190.544 C187.507,190.544 186.951,190.484 186.951,190.004 C186.951,189.704 187.368,189.464 187.923,189.464 C188.756,189.464 189.867,189.404 190.701,189.224 C192.298,188.864 192.507,187.484 192.576,183.044 L193.132,152.805 C193.132,151.785 193.548,151.065 194.173,151.065 C194.937,151.065 195.771,151.845 196.812,152.745 C197.576,153.405 206.742,161.505 215.631,169.005 C219.798,172.545 227.923,179.745 228.825,180.464 L229.102,180.464 L228.477,157.785 C228.408,154.665 227.852,153.765 226.394,153.285 C225.491,152.985 224.033,152.985 223.2,152.985 C222.436,152.985 222.228,152.745 222.228,152.445 C222.228,152.025 222.853,151.966 223.756,151.966 C226.95,151.966 230.214,152.086 231.533,152.086 C232.227,152.086 234.519,151.966 237.505,151.966 C238.339,151.966 238.895,152.026 238.895,152.445 C238.895,152.745 238.547,152.985 237.853,152.985 C237.228,152.985 236.742,152.985 235.978,153.165 C234.312,153.585 233.826,154.485 233.756,157.365 L233.062,189.525 C233.062,190.665 232.576,191.145 232.089,191.145 C231.047,191.145 230.214,190.605 229.589,190.065 C225.77,187.005 218.131,180.705 211.742,175.365 C205.075,169.845 198.617,163.665 197.437,162.765 L197.229,162.765 L197.924,183.584 Z" id="Path"></path>
            <path d="M10.8,205.7 L18.9,205.7 L18.9,454.099 C18.9,462.2 10.8,462.2 10.8,462.2 L10.8,205.7 Z" id="Path"></path>
        </g>
    </g>
</svg>