<svg enable-background="new 0 0 595.28 841.89" height="841.89" viewBox="0 0 595.28 841.89" width="595.28" xmlns="http://www.w3.org/2000/svg"><path d="m315.208 596.7h70.2v5.399h-70.2z"/><path d="m83.008 596.7h70.2v5.399h-70.2z"/><path d="m234.208 359.123c-23.858 0-43.2 19.342-43.2 43.2v132.3h86.4v-132.3c0-23.858-19.342-43.2-43.2-43.2zm37.703 40.5h-16.277c-1.219-9.769-8.957-17.507-18.726-18.726v-16.277c18.724 1.322 33.681 16.279 35.003 35.003zm-53.903 86.4v-37.8h32.4v37.8zm32.4 5.401v37.8h-32.4v-37.8zm-37.801-86.401v37.8h-16.2v-37.8zm21.601-18.9c8.027 0 14.686 5.839 15.972 13.5h-31.944c1.286-7.661 7.945-13.5 15.972-13.5zm16.2 18.9v37.8h-32.4v-37.8zm-37.801 43.201v37.8h-16.2v-37.8zm43.201 0h16.2v37.8h-16.2zm0-5.401v-37.8h16.2v37.8zm-24.3-78.203v16.277c-9.769 1.219-17.507 8.957-18.726 18.726h-16.277c1.321-18.724 16.279-33.681 35.003-35.003zm-35.1 126.804h16.2v37.8h-16.2zm59.4 37.8v-37.8h16.2v37.8z"/><path d="m280.107 513.023h18.9v21.6h-18.9z"/><path d="m280.107 491.424h13.5v18.899h-13.5z"/><path d="m280.107 469.823h18.9v18.9h-18.9z"/><path d="m280.107 448.224h10.8v18.899h-10.8z"/><path d="m280.107 426.623h18.9v18.9h-18.9z"/><path d="m280.107 405.023h13.5v18.9h-13.5z"/><path d="m164.008 537.323h140.4v21.601h-140.4z"/><path d="m169.408 513.023h18.9v21.6h-18.9z"/><path d="m174.808 491.424h13.5v18.899h-13.5z"/><path d="m169.408 469.823h18.9v18.9h-18.9z"/><path d="m177.508 448.224h10.8v18.899h-10.8z"/><path d="m169.408 426.623h18.9v18.9h-18.9z"/><path d="m174.808 405.023h13.5v18.9h-13.5z"/><path d="m287.397 365.334-15.294 11.112c4.801 7.021 7.703 15.443 7.966 24.527h6.754 12.15c-.27-13.235-4.51-25.494-11.576-35.639z"/><path d="m234.19 337.523c-6.517 0-12.807.966-18.74 2.756l4.046 12.451 1.797 5.533c3.069-.897 6.27-1.483 9.568-1.721 1.1-.079 2.209-.119 3.329-.119 4.478 0 8.805.644 12.896 1.839l5.844-17.983c-5.933-1.79-12.223-2.756-18.74-2.756z"/><path d="m252.112 351.535-2.457 7.562c8.33 2.98 15.546 8.3 20.859 15.167l5.86-4.257c-6.101-8.365-14.512-14.853-24.262-18.472z"/><path d="m190.471 372.228-9.487-6.893c-7.066 10.145-11.305 22.404-11.576 35.639h12.149 6.754c.263-9.084 3.165-17.506 7.966-24.527z"/><path d="m192.006 370.006 5.861 4.257c5.313-6.867 12.529-12.187 20.859-15.167l-2.457-7.562c-9.75 3.62-18.162 10.108-24.263 18.472z"/><path d="m374.607 577.8c0-8.1 0-256.5 0-256.5h-5.399v256.5c0 5.4-5.4 5.4-5.4 0 0-4.487 0-190.183 0-256.5h-5.399v256.5c0 5.4-5.4 5.4-5.4 0 0-4.487 0-190.183 0-256.5h-5.4v256.5c0 5.4-5.399 5.4-5.399 0 0-4.487 0-190.183 0-256.5h-16.2v256.5c0 8.101-8.1 8.101-8.1 8.101v8.1h64.8v-8.1c-.002-.001-8.103-.001-8.103-8.101z"/><path d="m142.408 577.8c0-8.1 0-256.5 0-256.5h-5.4v256.5c0 5.4-5.4 5.4-5.4 0 0-4.487 0-190.183 0-256.5h-5.4v256.5c0 5.4-5.4 5.4-5.4 0 0-4.487 0-190.183 0-256.5h-5.4v256.5c0 5.4-5.4 5.4-5.4 0 0-4.487 0-190.183 0-256.5h-16.2v256.5c0 8.101-8.1 8.101-8.1 8.101v8.1h64.8v-8.1c0-.001-8.1-.001-8.1-8.101z"/><path d="m315.208 561.623h-2.7-156.6-2.7-8.1v16.177c0 2.982 3.627 5.4 8.1 5.4v10.8h2.7v8.1h156.6v-8.1h2.7v-10.8c4.474 0 8.1-2.418 8.1-5.4v-16.177z"/><path d="m145.107 507.623v2.701 18.9 5.399 24.301h16.201v-24.301h5.4v-24.299h5.399v-18.9h-27z"/><path d="m166.708 448.224v-21.601h-21.601v62.101h21.601v-21.601h8.1v-18.899z"/><path d="m296.308 510.324h5.4v24.299h5.399v24.301h16.201v-24.301-24.299-18.9h-27z"/><path d="m301.708 426.623h21.6v62.101h-21.6z"/><path d="m293.607 448.224h10.801v18.899h-10.801z"/><path d="m145.107 402.323h27v21.601h-27z"/><path d="m296.308 402.323h27v21.601h-27z"/><path d="m379.8 569.7c0 10.8 13.5 10.8 13.5 10.8h40.5s13.5 2.7 13.5-10.8 0-289.2 0-297.3c0-5.4-8.101 0-8.101 0s0 289.2 0 294.6-5.399 5.4-5.399 5.4h-40.5s-5.4 0-5.4-5.4 0-294.6 0-294.6-8.1-5.4-8.1 0z"/><path d="m452.699 569.779c0 10.801 13.5 10.801 13.5 10.801h40.5s13.5 2.699 13.5-10.801 0-351.379 0-359.479c0-5.4-8.1 0-8.1 0s0 351.38 0 356.78c0 5.399-5.4 5.399-5.4 5.399h-40.5s-5.399 0-5.399-5.399c0-5.4 0-356.78 0-356.78s-8.101-5.4-8.101 0z"/><path d="m72 121.5v499.5h459v-499.5zm453.6 486h-448.2v-469.8h448.2z"/><path d="m145.107 326.7v72.923h21.659c.577-14.658 5.828-28.115 14.303-38.923l8.812 6.402c6.241-8.375 14.74-14.967 24.595-18.876l-3.071-9.452c7.123-2.556 14.8-3.951 22.802-3.951 7.875 0 15.432 1.351 22.458 3.829l-3.142 9.671c9.855 3.909 18.354 10.502 24.595 18.877l9.124-6.629c8.536 10.829 13.828 24.335 14.407 39.052h21.658v-72.923z"/><path d="m509.399 596.7v-5.4h5.609v-5.4h-129.6v8.1h2.699v8.1h126.901v-5.4z"/><path d="m436.5 283.5h-45.9v5.4h5.4v278.1h2.7v-278.1h5.4v278.1h2.7v-278.1h5.399v278.1h2.7v-278.1h5.401v278.1h2.7v-278.1h5.399v278.1h2.701v-278.1h5.4z"/><path d="m509.399 221.4h-45.899v5.4h5.4v340.2h2.7v-340.2h5.4v340.2h2.699v-340.2h5.401v340.2h2.7v-340.2h5.399v340.2h2.7v-340.2h5.401v340.2h2.7v-340.2h5.399z"/><path d="m90.9 166.356c0-9.12 0-10.8-.139-12.72-.139-2.04-.694-3-2.986-3.42-.556-.12-1.736-.18-2.708-.18-.764 0-1.18-.12-1.18-.541 0-.42.486-.54 1.527-.54 1.875 0 3.889.06 5.625.06 1.806.06 3.402.12 4.375.12 2.222 0 16.041 0 17.36-.061 1.319-.12 2.431-.24 2.986-.359.347-.061.764-.24 1.111-.24s.417.24.417.54c0 .42-.347 1.14-.556 3.9-.07.6-.208 3.24-.347 3.959-.069.3-.208.66-.694.66s-.625-.3-.625-.84c0-.42-.069-1.44-.417-2.16-.486-1.08-1.18-1.8-4.652-2.16-1.181-.12-8.472-.24-9.861-.24-.347 0-.486.18-.486.6v15.18c0 .42.069.66.486.66 1.528 0 9.513 0 11.111-.12 1.667-.12 2.708-.3 3.333-.9.486-.48.764-.78 1.111-.78.277 0 .486.12.486.479 0 .36-.278 1.32-.556 4.38-.069 1.2-.278 3.601-.278 4.021 0 .479 0 1.14-.625 1.14-.486 0-.625-.24-.625-.54-.069-.6-.069-1.38-.277-2.16-.347-1.2-1.319-2.1-3.889-2.34-1.319-.12-8.194-.18-9.861-.18-.347 0-.417.24-.417.6v4.74c0 2.04-.069 7.56 0 9.3.139 4.14 1.25 5.04 8.333 5.04 1.805 0 4.722 0 6.527-.72 1.806-.72 2.639-1.98 3.125-4.44.139-.66.278-.899.764-.899.556 0 .556.479.556 1.08 0 1.38-.556 5.46-.903 6.66-.486 1.561-1.111 1.561-3.75 1.561-5.208 0-9.027-.12-12.014-.18-2.986-.12-5.139-.18-7.222-.18-.764 0-2.292 0-3.958.06-1.597 0-3.403.12-4.792.12-.903 0-1.389-.18-1.389-.6 0-.3.278-.48 1.111-.48 1.042 0 1.875-.12 2.5-.24 1.389-.24 1.736-1.561 2.014-3.3.348-2.52.348-7.26.348-12.78v-10.56z"/><path d="m132.011 170.496c0-7.74 0-9.18-.069-10.8-.139-1.74-.694-2.28-2.639-2.76-.486-.12-1.528-.18-2.431-.18-.625 0-1.042-.18-1.042-.54s.486-.48 1.389-.48c3.194 0 7.083.12 8.819.12 1.875 0 6.25-.12 9.93-.12 7.639 0 17.917 0 24.583 5.82 3.055 2.64 5.764 6.899 5.764 12.959 0 6.42-3.194 11.28-6.667 14.22-2.778 2.4-9.236 6-20.486 6-2.222 0-4.861-.18-7.292-.3-2.43-.18-4.652-.3-6.18-.3-.694 0-2.014.06-3.472.06-1.458.06-2.986.12-4.236.12-.764 0-1.18-.18-1.18-.541 0-.239.208-.54.972-.54.903 0 1.597-.06 2.153-.18 1.25-.24 1.597-1.2 1.805-2.7.278-2.16.278-6.18.278-10.86v-8.998zm8.194 5.64c0 5.4.069 9.3.139 10.32.07 1.26.208 3.06.694 3.6.764.96 3.195 2.04 7.986 2.04 5.555 0 9.652-.84 13.333-3.48 3.958-2.82 5.208-7.38 5.208-12.66 0-6.48-2.986-10.68-5.694-12.72-5.625-4.32-12.291-4.86-17.083-4.86-1.25 0-3.264.12-3.75.36-.555.18-.764.42-.764 1.02-.069 1.74-.069 5.94-.069 9.959z"/><path d="m189.024 170.496c0-7.74 0-9.18-.07-10.8-.139-1.74-.764-2.34-2.083-2.7-.695-.18-1.458-.24-2.222-.24-.625 0-.973-.12-.973-.6 0-.3.486-.42 1.458-.42 2.292 0 6.458.12 8.194.12 1.528 0 5.486-.12 7.847-.12.764 0 1.25.12 1.25.42 0 .48-.347.6-.973.6-.625 0-1.111.06-1.805.18-1.667.24-2.153.96-2.292 2.76-.139 1.62-.139 3.06-.139 10.8v9c0 4.92 0 9 .278 11.16.208 1.38.625 2.16 2.431 2.399.833.12 2.222.18 3.125.18.694 0 .972.3.972.54 0 .36-.486.541-1.181.541-4.028 0-8.194-.18-9.861-.18-1.389 0-5.556.18-7.986.18-.764 0-1.181-.18-1.181-.541 0-.239.208-.54.972-.54.903 0 1.597-.06 2.153-.18 1.25-.24 1.597-.96 1.806-2.46.278-2.1.278-6.18.278-11.1v-8.999z"/><path d="m221.107 187.356c.139 3.96.903 5.16 2.083 5.52 1.042.3 2.222.36 3.194.36.694 0 1.042.24 1.042.54 0 .42-.556.541-1.389.541-3.958 0-6.805-.18-7.916-.18-.556 0-3.472.18-6.597.18-.833 0-1.389-.06-1.389-.541 0-.3.417-.54.972-.54.833 0 1.945-.06 2.778-.24 1.597-.36 1.806-1.74 1.875-6.18l.556-30.24c0-1.02.417-1.74 1.042-1.74.764 0 1.597.78 2.639 1.68.764.66 9.931 8.76 18.819 16.26 4.167 3.54 12.291 10.739 13.194 11.459h.278l-.625-22.679c-.069-3.12-.625-4.021-2.083-4.5-.903-.3-2.361-.3-3.195-.3-.764 0-.972-.24-.972-.54 0-.42.625-.48 1.527-.48 3.194 0 6.458.12 7.778.12.694 0 2.986-.12 5.972-.12.833 0 1.389.06 1.389.48 0 .3-.347.54-1.042.54-.625 0-1.111 0-1.875.18-1.667.42-2.153 1.32-2.222 4.2l-.694 32.16c0 1.14-.486 1.62-.973 1.62-1.042 0-1.875-.54-2.5-1.08-3.819-3.06-11.458-9.36-17.847-14.7-6.666-5.52-13.125-11.699-14.305-12.6h-.208z"/><path d="m275.689 170.496c0-7.74 0-9.18-.069-10.8-.139-1.74-.695-2.28-2.639-2.76-.486-.12-1.527-.18-2.43-.18-.625 0-1.042-.18-1.042-.54s.486-.48 1.389-.48c3.194 0 7.083.12 8.264.12 3.056 0 7.083-.12 9.167-.12 11.042 0 12.986 4.92 12.986 7.62 0 3.96-3.403 7.02-6.875 8.939 5 1.38 11.25 5.04 11.25 11.04 0 5.46-5 11.1-16.25 11.1-.694 0-2.777-.06-4.861-.18-2.083-.06-4.236-.12-5.208-.12-.694 0-2.014.06-3.472.06-1.458.06-2.986.12-4.236.12-.764 0-1.181-.18-1.181-.541 0-.239.209-.54.973-.54.902 0 1.597-.06 2.152-.18 1.25-.24 1.598-1.2 1.806-2.7.278-2.16.278-6.18.278-10.86v-8.998zm7.916.84c0 .42.208.48.417.54.555.12 1.458.18 2.847.18 2.014 0 3.75-.18 4.792-.9 1.597-1.08 2.777-2.94 2.777-5.4 0-3.42-2.361-7.68-7.639-7.68-.833 0-2.014 0-2.639.12-.417.06-.556.3-.556.84v12.3zm0 15c0 3.36.208 4.38 2.153 5.04 1.597.54 2.986.6 4.375.6 3.264 0 7.5-1.56 7.5-7.2 0-2.34-1.181-6.36-5.764-9.06-1.25-.78-2.917-1.319-5.277-1.319h-2.639c-.208 0-.347.06-.347.359v11.58z"/><path d="m317.494 170.496c0-7.74.069-9.18-.069-10.8-.139-1.8-.694-2.28-2.639-2.76-.486-.12-1.528-.18-2.361-.18-.694 0-1.042-.18-1.042-.54s.417-.48 1.32-.48c3.264 0 7.36.12 9.166.12 1.527 0 5.625-.12 7.848-.12.902 0 1.318.12 1.318.48s-.347.54-.972.54c-.694 0-1.042.06-1.806.18-1.598.24-2.083.96-2.223 2.76-.139 1.62-.139 3.06-.139 10.8v7.14c0 7.44 1.667 10.32 4.653 12.36 2.708 1.859 5.624 2.04 7.708 2.04 2.639 0 5.764-.66 8.194-2.7 3.402-2.76 3.541-7.2 3.541-12.42v-6.42c0-7.74-.069-9.18-.139-10.8-.139-1.74-.625-2.28-2.569-2.76-.486-.12-1.527-.18-2.223-.18-.693 0-1.041-.18-1.041-.54s.416-.48 1.25-.48c3.125 0 7.222.12 7.291.12.694 0 4.792-.12 7.153-.12.833 0 1.25.12 1.25.48s-.348.54-1.042.54-1.042.06-1.806.18c-1.667.24-2.083.96-2.222 2.76-.07 1.62-.139 3.06-.139 10.8v5.46c0 5.7-.695 11.7-5.834 15.36-4.305 3.12-8.958 3.66-12.916 3.66-3.194 0-9.514-.12-13.958-3.479-3.125-2.34-5.556-6.12-5.556-13.5v-7.501z"/><path d="m371.521 170.496c0-7.74 0-9.18-.069-10.8-.139-1.74-.694-2.28-2.639-2.76-.486-.12-1.527-.18-2.431-.18-.625 0-1.041-.18-1.041-.54s.486-.48 1.389-.48c3.194 0 7.083.12 8.333.12 2.083 0 7.639-.12 9.514-.12 3.889 0 8.333.3 11.597 2.16 1.736 1.02 4.306 3.6 4.306 7.02 0 3.78-2.5 7.14-8.472 11.28 5.416 5.76 9.722 10.38 13.402 13.56 3.402 2.94 5.555 3.18 6.527 3.36.625.12.973.12 1.459.12.485 0 .764.3.764.54 0 .42-.417.541-1.181.541h-5.833c-3.403 0-5.07-.3-6.667-1.02-2.639-1.14-4.931-3.54-8.333-7.5-2.431-2.76-5-6.18-5.764-6.96-.348-.3-.694-.36-1.111-.36l-5.486-.12c-.277 0-.485.12-.485.42v.72c0 4.74.069 8.7.347 10.86.209 1.5.486 2.46 2.361 2.7.902.12 2.222.18 2.986.18.486 0 .764.3.764.54 0 .36-.486.541-1.25.541-3.542 0-8.611-.18-9.514-.18-1.181 0-5.069.18-7.5.18-.764 0-1.181-.18-1.181-.541 0-.239.208-.54.973-.54.902 0 1.597-.06 2.152-.18 1.25-.24 1.598-1.2 1.806-2.7.277-2.16.277-6.18.277-10.86zm7.779 3.96c0 .54.139.72.556.9 1.319.36 3.125.48 4.652.48 2.431 0 3.264-.18 4.306-.84 1.874-1.14 3.958-3.36 3.958-7.56 0-7.2-5.694-9.061-9.306-9.061-1.527 0-2.985.061-3.61.181-.417.12-.556.3-.556.72z"/><path d="m456.104 190.896c0 1.38 0 1.44-.764 1.8-4.098 1.74-10.139 2.28-14.93 2.28-15 0-28.264-5.88-28.264-19.979 0-8.16 5.069-13.86 10.694-16.68 5.833-2.94 11.319-3.3 16.458-3.3 4.236 0 9.583.6 10.833.84 1.25.18 3.402.48 4.86.54.695.06.834.24.834.6 0 .6-.417 1.98-.417 8.4 0 .78-.347 1.14-.833 1.14-.417 0-.556-.24-.625-.66-.139-1.14-.486-2.76-2.083-4.2-1.806-1.62-6.39-3.9-13.264-3.9-3.333 0-7.569.06-11.806 3-3.402 2.4-5.625 6.18-5.625 12.42 0 10.979 8.194 18.959 21.25 18.959 1.597 0 2.847 0 4.305-.54.903-.36 1.181-.9 1.181-1.8v-4.68c0-2.52 0-4.439-.069-6-.069-1.74-.694-2.28-2.639-2.76-.486-.12-1.527-.18-2.361-.18-.555 0-.972-.24-.972-.54 0-.42.485-.48 1.319-.48 3.194 0 7.569.12 9.375.12 1.944 0 5.139-.12 7.152-.12.833 0 1.25.061 1.25.48 0 .3-.348.54-.764.54-.486 0-.973.06-1.667.18-1.667.24-2.292.96-2.36 2.76-.07 1.561-.07 3.6-.07 6.12v5.64z"/><path d="m504.853 172.356c.139 0 .348-.06.348-.36v-1.08c0-7.74-.069-9.6-.14-11.22-.139-1.74-.694-2.28-2.639-2.76-.486-.12-1.527-.18-2.361-.18-.693 0-1.041-.18-1.041-.54s.416-.48 1.319-.48c3.264 0 7.569.12 9.167.12 1.458 0 5.485-.12 7.846-.12.903 0 1.32.12 1.32.48s-.417.54-1.111.54c-.486 0-1.042.06-1.805.18-1.598.24-2.084.96-2.223 2.76-.139 1.62-.139 3.06-.139 10.8v9c0 4.68 0 8.7.277 10.92.209 1.439.556 2.4 2.431 2.64.833.12 2.152.18 3.124.18.626 0 .973.3.973.54 0 .36-.486.541-1.25.541-3.958 0-7.985-.18-9.652-.18-1.389 0-5.694.18-8.056.18-.833 0-1.319-.18-1.319-.541 0-.239.278-.54.973-.54.973 0 1.666-.06 2.222-.18 1.25-.24 1.598-1.2 1.806-2.7.278-2.16.278-6.06.278-10.74v-3.9c0-.18-.209-.3-.348-.3h-23.055c-.208 0-.417.06-.417.3v3.9c0 4.68.069 8.58.348 10.8.208 1.439.555 2.4 2.361 2.64.833.12 2.222.18 3.124.18.694 0 .973.3.973.54 0 .36-.486.541-1.25.541-3.958 0-8.194-.18-9.931-.18-1.389 0-5.416.18-7.847.18-.764 0-1.181-.18-1.181-.541 0-.239.208-.54.973-.54.902 0 1.597-.06 2.152-.18 1.25-.24 1.598-1.2 1.806-2.7.277-2.16.277-6.18.277-10.86v-9c0-7.74 0-9.18-.069-10.8-.139-1.74-.694-2.28-2.639-2.76-.486-.12-1.527-.18-2.431-.18-.625 0-1.042-.18-1.042-.54s.486-.48 1.32-.48c3.264 0 7.291.12 8.958.12 1.458 0 5.694-.12 8.124-.12.834 0 1.25.12 1.25.48s-.347.54-1.11.54c-.486 0-1.042.06-1.736.18-1.667.24-2.153.96-2.292 2.76-.139 1.62-.139 3.48-.139 11.22v1.08c0 .3.209.36.417.36z"/><path d="m99.581 236.22c0 7.68 0 11.82 1.458 12.9 1.181.899 2.986 1.32 8.403 1.32 3.681 0 6.389-.06 8.125-1.68.833-.78 1.667-2.46 1.805-3.6.07-.54.208-.9.764-.9.486 0 .555.3.555 1.021 0 .66-.486 5.16-1.042 6.899-.417 1.32-.764 1.62-4.375 1.62-5 0-8.611-.12-11.735-.18-3.125-.12-5.625-.18-8.472-.18-.764 0-2.292 0-3.958.06-1.597 0-3.403.12-4.792.12-.903 0-1.389-.18-1.389-.601 0-.3.278-.479 1.111-.479 1.042 0 1.875-.12 2.5-.24 1.389-.24 1.736-1.56 2.014-3.3.348-2.52.348-7.26.348-12.78v-10.56c0-9.12 0-10.8-.139-12.72-.139-2.04-.694-3-2.986-3.42-.556-.12-1.389-.18-2.292-.18-.764 0-1.18-.12-1.18-.54s.486-.54 1.528-.54c3.264 0 7.639.18 9.514.18 1.667 0 6.736-.18 9.444-.18.972 0 1.458.12 1.458.54s-.417.54-1.25.54c-.764 0-1.875.06-2.708.18-1.875.3-2.43 1.32-2.569 3.42-.139 1.92-.139 3.6-.139 12.72v10.56z"/><path d="m131.524 229.8c0-7.74 0-9.18-.069-10.8-.139-1.739-.764-2.34-2.083-2.7-.694-.18-1.458-.24-2.222-.24-.625 0-.972-.12-.972-.6 0-.3.486-.42 1.458-.42 2.292 0 6.458.12 8.194.12 1.527 0 5.486-.12 7.847-.12.764 0 1.25.12 1.25.42 0 .48-.347.6-.972.6s-1.111.06-1.805.18c-1.667.24-2.153.96-2.292 2.76-.139 1.62-.139 3.061-.139 10.8v9c0 4.92 0 9 .278 11.16.208 1.38.625 2.16 2.43 2.4.833.12 2.223.18 3.125.18.694 0 .972.3.972.54 0 .36-.486.54-1.18.54-4.028 0-8.194-.18-9.861-.18-1.389 0-5.555.18-7.986.18-.764 0-1.18-.18-1.18-.54 0-.24.208-.54.972-.54.903 0 1.597-.061 2.153-.18 1.25-.24 1.597-.96 1.805-2.46.278-2.1.278-6.18.278-11.1v-9z"/><path d="m167.913 218.16-9.097.18c-3.541.06-5 .42-5.902 1.56-.625.72-.903 1.38-1.042 1.74-.139.42-.278.66-.695.66s-.555-.3-.555-.84c0-.84 1.18-5.76 1.319-6.18.139-.66.347-.96.694-.96.486 0 1.111.42 2.639.6 1.805.18 4.097.24 6.11.24h24.792c1.944 0 3.264-.12 4.167-.24.972-.12 1.458-.24 1.667-.24.417 0 .486.3.486 1.08 0 1.08-.139 4.859-.139 6.18-.069.54-.208.84-.556.84-.486 0-.625-.24-.694-1.02l-.069-.54c-.139-1.32-1.736-2.88-7.222-2.94l-7.708-.12v20.64c0 4.68.069 8.7.347 10.92.208 1.44.556 2.4 2.361 2.64.833.12 2.222.18 3.125.18.694 0 .972.3.972.54 0 .36-.486.54-1.181.54-4.027 0-8.125-.18-9.86-.18-1.389 0-5.556.18-7.986.18-.764 0-1.181-.18-1.181-.54 0-.24.208-.54.972-.54.903 0 1.667-.061 2.152-.18 1.25-.24 1.598-1.2 1.806-2.7.278-2.16.278-6.18.278-10.86z"/><path d="m203.746 229.8c0-7.74 0-9.18-.069-10.8-.139-1.739-.695-2.279-2.639-2.76-.486-.12-1.527-.18-2.431-.18-.625 0-1.042-.18-1.042-.54s.486-.48 1.389-.48c3.194 0 7.083.12 8.819.12 1.944 0 15.485.061 16.666 0 1.111-.06 2.083-.24 2.569-.3.347-.06.694-.24.972-.24.347 0 .417.24.417.48 0 .36-.347.96-.486 3.3-.069.54-.208 2.76-.347 3.36-.069.24-.208.84-.694.84-.417 0-.486-.24-.486-.66 0-.36-.069-1.26-.417-1.86-.486-.899-.972-1.62-4.028-1.86-1.042-.12-8.333-.24-9.583-.24-.278 0-.417.18-.417.48v12.6c0 .3.07.54.417.54 1.389 0 9.305 0 10.694-.12 1.458-.12 2.292-.3 2.917-.78.486-.36.694-.66.972-.66s.486.24.486.54-.139 1.14-.486 3.72c-.139 1.02-.278 3.06-.278 3.419 0 .42-.069 1.141-.625 1.141-.417 0-.555-.18-.555-.42-.07-.54-.07-1.2-.209-1.86-.347-1.02-1.111-1.8-3.402-1.98-1.111-.12-8.056-.24-9.583-.24-.278 0-.348.24-.348.54v4.08c0 1.74-.069 6.06 0 7.56.139 3.479 2.014 4.26 8.264 4.26 1.597 0 4.167-.06 5.764-.66 1.528-.6 2.222-1.68 2.639-3.78.139-.54.278-.78.694-.78.486 0 .556.66.556 1.2 0 1.14-.486 4.62-.833 5.64-.417 1.32-.972 1.32-3.264 1.32-4.583 0-8.264-.06-11.25-.18-2.986-.06-5.278-.12-7.083-.12-.694 0-2.014.06-3.472.06-1.458.06-2.986.12-4.236.12-.764 0-1.181-.18-1.181-.54 0-.24.208-.54.973-.54.902 0 1.597-.061 2.152-.18 1.25-.24 1.598-1.2 1.806-2.7.278-2.16.278-6.18.278-10.86z"/><path d="m242.356 229.8c0-7.74 0-9.18-.069-10.8-.139-1.739-.695-2.279-2.639-2.76-.486-.12-1.528-.18-2.43-.18-.625 0-1.042-.18-1.042-.54s.486-.48 1.389-.48c3.194 0 7.083.12 8.333.12 2.083 0 7.639-.12 9.514-.12 3.889 0 8.333.3 11.597 2.16 1.736 1.02 4.305 3.6 4.305 7.02 0 3.78-2.5 7.14-8.472 11.28 5.417 5.76 9.722 10.38 13.402 13.56 3.403 2.94 5.556 3.18 6.528 3.36.625.12.972.12 1.458.12s.764.3.764.54c0 .42-.417.54-1.181.54h-5.833c-3.402 0-5.069-.3-6.667-1.021-2.639-1.14-4.93-3.54-8.333-7.5-2.431-2.76-5-6.18-5.764-6.959-.347-.3-.694-.36-1.111-.36l-5.486-.12c-.278 0-.486.12-.486.42v.72c0 4.74.069 8.7.347 10.86.208 1.5.486 2.46 2.361 2.7.903.12 2.222.18 2.986.18.486 0 .764.3.764.54 0 .36-.486.54-1.25.54-3.542 0-8.61-.18-9.513-.18-1.181 0-5.07.18-7.5.18-.764 0-1.181-.18-1.181-.54 0-.24.208-.54.972-.54.903 0 1.598-.061 2.153-.18 1.25-.24 1.597-1.2 1.806-2.7.278-2.16.278-6.18.278-10.86zm7.778 3.96c0 .541.139.72.556.9 1.319.36 3.125.48 4.653.48 2.43 0 3.264-.18 4.305-.84 1.875-1.14 3.958-3.36 3.958-7.56 0-7.2-5.694-9.06-9.305-9.06-1.528 0-2.986.06-3.611.18-.417.12-.556.3-.556.72z"/><path d="m292.633 240.72c-.347 0-.417.061-.556.36l-3.264 6.9c-.625 1.26-.902 2.52-.902 3.12 0 .9.555 1.44 2.43 1.44h.903c.764 0 .902.24.902.54 0 .42-.347.54-.972.54-2.014 0-4.861-.18-6.806-.18-.625 0-3.889.18-7.083.18-.764 0-1.111-.12-1.111-.54 0-.3.208-.54.694-.54.556 0 1.25-.061 1.806-.061 2.778-.359 3.819-1.919 5.069-4.5l15.972-31.86c.694-1.439 1.181-2.04 1.806-2.04.902 0 1.181.48 1.806 1.62 1.458 2.82 11.666 23.46 15.556 31.2 2.36 4.62 4.097 5.28 5.208 5.46.902.12 1.597.18 2.291.18.556 0 .834.18.834.54 0 .42-.348.54-2.64.54-2.152 0-6.597 0-11.735-.12-1.111-.06-1.806-.06-1.806-.42 0-.3.139-.48.764-.54.417-.061.834-.54.556-1.14l-4.722-10.32c-.139-.3-.348-.36-.625-.36h-14.375zm13.055-2.82c.277 0 .347-.12.277-.3l-5.764-12.78c-.069-.18-.139-.48-.278-.48-.208 0-.277.3-.347.48l-5.902 12.72c-.139.24 0 .36.208.36z"/><path d="m333.882 229.8c0-7.74 0-9.18-.069-10.8-.139-1.739-.695-2.279-2.639-2.76-.486-.12-1.528-.18-2.431-.18-.625 0-1.042-.18-1.042-.54s.486-.48 1.389-.48c3.194 0 7.084.12 8.334.12 2.083 0 7.639-.12 9.514-.12 3.889 0 8.332.3 11.597 2.16 1.735 1.02 4.306 3.6 4.306 7.02 0 3.78-2.5 7.14-8.473 11.28 5.416 5.76 9.723 10.38 13.402 13.56 3.403 2.94 5.556 3.18 6.527 3.36.625.12.973.12 1.459.12s.764.3.764.54c0 .42-.417.54-1.181.54h-5.833c-3.402 0-5.069-.3-6.666-1.021-2.64-1.14-4.931-3.54-8.334-7.5-2.43-2.76-5-6.18-5.764-6.959-.347-.3-.694-.36-1.111-.36l-5.485-.12c-.278 0-.486.12-.486.42v.72c0 4.74.069 8.7.347 10.86.209 1.5.486 2.46 2.361 2.7.903.12 2.223.18 2.986.18.486 0 .764.3.764.54 0 .36-.486.54-1.25.54-3.541 0-8.61-.18-9.514-.18-1.18 0-5.069.18-7.5.18-.764 0-1.18-.18-1.18-.54 0-.24.208-.54.972-.54.903 0 1.598-.061 2.153-.18 1.25-.24 1.597-1.2 1.805-2.7.278-2.16.278-6.18.278-10.86zm7.777 3.96c0 .541.139.72.556.9 1.319.36 3.125.48 4.652.48 2.431 0 3.264-.18 4.306-.84 1.875-1.14 3.958-3.36 3.958-7.56 0-7.2-5.694-9.06-9.305-9.06-1.528 0-2.986.06-3.611.18-.417.12-.556.3-.556.72z"/><path d="m386.729 240.36c0-2.76-.556-3.84-1.389-5.34-.417-.78-8.75-12-10.902-14.7-1.528-1.86-2.778-3.06-3.959-3.6-.764-.36-1.805-.66-2.569-.66-.485 0-.902-.18-.902-.54s.417-.48 1.181-.48c1.041 0 5.625.12 7.639.12 1.319 0 4.166-.12 6.943-.12.557 0 .903.12.903.48 0 .42-.417.42-1.389.66-.486.12-.833.36-.833.78s.277 1.02.764 1.74c1.111 1.561 9.097 13.5 10.139 14.94.764-1.2 8.193-12.12 9.097-13.68.625-1.14.903-2.04.903-2.7 0-.48-.278-.96-1.32-1.141-.555-.12-1.11-.18-1.11-.6 0-.36.347-.48 1.041-.48 2.015 0 4.167.12 5.973.12 1.319 0 5.347-.12 6.527-.12.694 0 1.111.12 1.111.42 0 .36-.486.6-1.181.6-.625 0-1.736.24-2.639.6-1.32.54-1.875 1.021-3.194 2.4-2.015 2.04-10.764 14.16-11.875 16.319-.903 1.86-.764 3.42-.764 5.1v4.08c0 .84 0 2.94.139 5.1.139 1.5.694 2.46 2.5 2.7.903.12 2.222.18 3.056.18.694 0 1.041.3 1.041.54 0 .36-.485.54-1.319.54-3.819 0-7.916-.18-9.583-.18-1.527 0-5.625.18-7.916.18-.834 0-1.319-.12-1.319-.54 0-.24.277-.54.972-.54.834 0 1.598-.061 2.152-.18 1.25-.24 1.736-1.2 1.875-2.7.209-2.16.209-4.26.209-5.1v-4.198z"/><path d="m87.081 310.824c-1.111-.42-1.319-.72-1.319-2.04 0-3.3.277-6.9.347-7.86.07-.9.278-1.56.833-1.56.625 0 .694.54.694 1.02 0 .78.278 2.041.625 3.061 1.528 4.439 5.625 6.06 9.93 6.06 6.25 0 9.306-3.66 9.306-6.84 0-2.94-1.042-5.7-6.806-9.6l-3.194-2.16c-7.639-5.16-10.277-9.36-10.277-14.22 0-6.6 6.389-11.34 16.041-11.34 4.514 0 7.431.6 9.236 1.02.625.12.972.3.972.72 0 .78-.278 2.52-.278 7.2 0 1.32-.208 1.8-.764 1.8-.486 0-.695-.36-.695-1.08 0-.54-.347-2.4-1.806-3.96-1.042-1.14-3.055-2.94-7.569-2.94-5.139 0-8.264 2.58-8.264 6.18 0 2.76 1.597 4.86 7.361 8.64l1.944 1.26c8.402 5.46 11.389 9.6 11.389 15.3 0 3.479-1.528 7.62-6.528 10.439-3.472 1.92-7.361 2.46-11.041 2.46-4.026 0-7.151-.42-10.137-1.56z"/><path d="m132.565 298.645c-.347 0-.417.06-.556.359l-3.264 6.9c-.625 1.26-.903 2.52-.903 3.12 0 .899.556 1.439 2.431 1.439h.903c.764 0 .902.24.902.54 0 .42-.347.54-.972.54-2.014 0-4.861-.18-6.806-.18-.625 0-3.889.18-7.083.18-.764 0-1.111-.12-1.111-.54 0-.3.208-.54.694-.54.556 0 1.25-.06 1.806-.06 2.778-.36 3.819-1.92 5.069-4.5l15.972-31.859c.694-1.44 1.181-2.04 1.806-2.04.903 0 1.181.479 1.806 1.62 1.458 2.819 11.667 23.459 15.555 31.199 2.361 4.62 4.097 5.28 5.208 5.46.903.12 1.597.18 2.292.18.556 0 .833.18.833.54 0 .42-.347.54-2.639.54-2.153 0-6.597 0-11.736-.12-1.111-.06-1.806-.06-1.806-.42 0-.3.139-.479.764-.54.417-.06.833-.54.556-1.14l-4.722-10.32c-.139-.3-.347-.359-.625-.359h-14.374zm13.056-2.821c.278 0 .347-.12.278-.3l-5.764-12.78c-.069-.18-.139-.479-.278-.479-.208 0-.278.3-.347.479l-5.903 12.72c-.139.24 0 .36.208.36z"/><path d="m182.008 296.724c0 6.54 0 9.78 1.32 10.74 1.042.78 3.402 1.08 8.125 1.08 3.264 0 5.625-.06 7.153-1.44.764-.66 1.389-2.1 1.527-3.06.07-.479.208-.78.694-.78.417 0 .556.54.556 1.14s-.417 4.38-.902 5.88c-.417 1.14-.695 1.38-3.889 1.38-4.375 0-7.917-.06-10.972-.18-3.056-.06-5.625-.12-8.125-.12-.694 0-2.014.06-3.472.06-1.458.06-2.986.12-4.236.12-.764 0-1.181-.18-1.181-.54 0-.24.208-.54.972-.54.903 0 1.597-.06 2.153-.18 1.25-.24 1.597-1.2 1.806-2.7.278-2.16.278-6.18.278-10.86v-9c0-7.74 0-9.18-.07-10.8-.139-1.74-.694-2.28-2.639-2.76-.486-.12-1.25-.18-2.014-.18-.695 0-1.042-.18-1.042-.54s.417-.479 1.319-.479c2.847 0 6.736.12 8.402.12 1.458 0 6.458-.12 8.819-.12.902 0 1.319.12 1.319.479 0 .36-.347.54-1.111.54-.694 0-1.667.061-2.361.18-1.667.24-2.153.96-2.292 2.76-.139 1.62-.139 3.06-.139 10.8v9z"/><path d="m204.092 292.225c0-8.7 7.083-19.98 25.624-19.98 15.417 0 25 7.38 25 19.08s-9.861 20.88-25.624 20.88c-17.778-.001-25-10.921-25-19.98zm41.526.96c0-11.28-7.847-18.24-17.708-18.24-6.806 0-14.792 3.12-14.792 15.72 0 10.5 6.944 18.78 18.472 18.78 4.306-.001 14.028-1.741 14.028-16.26z"/><path d="m269.924 304.584c.139 3.96.903 5.16 2.083 5.52 1.042.3 2.222.36 3.194.36.695 0 1.042.24 1.042.54 0 .42-.556.54-1.389.54-3.958 0-6.806-.18-7.917-.18-.556 0-3.472.18-6.597.18-.833 0-1.389-.06-1.389-.54 0-.3.417-.54.972-.54.833 0 1.944-.06 2.778-.24 1.597-.36 1.806-1.74 1.875-6.18l.556-30.239c0-1.02.416-1.74 1.041-1.74.764 0 1.598.78 2.639 1.68.764.66 9.93 8.76 18.819 16.26 4.167 3.54 12.292 10.74 13.194 11.459h.277l-.625-22.679c-.069-3.12-.625-4.02-2.083-4.5-.903-.3-2.361-.3-3.194-.3-.764 0-.972-.24-.972-.54 0-.42.625-.479 1.528-.479 3.194 0 6.458.12 7.777.12.694 0 2.986-.12 5.972-.12.834 0 1.39.06 1.39.479 0 .3-.348.54-1.042.54-.625 0-1.111 0-1.875.18-1.666.42-2.152 1.32-2.222 4.2l-.694 32.16c0 1.14-.486 1.62-.973 1.62-1.042 0-1.875-.54-2.5-1.08-3.819-3.06-11.458-9.36-17.847-14.7-6.667-5.52-13.125-11.7-14.305-12.6h-.208z"/><path d="m82.8 326.7h8.1v248.399c0 8.101-8.1 8.101-8.1 8.101z"/></svg>